<?xml version="1.0" encoding="UTF-8"?>
<svg width="143px" height="221px" viewBox="0 0 143 221" version="1.1" xmlns="http://www.w3.org/2000/svg" xmlns:xlink="http://www.w3.org/1999/xlink">
    <title>Layered</title>
    <g id="Page-1" stroke="none" stroke-width="1" fill="none" fill-rule="evenodd">
        <g id="Layered" transform="translate(0.000000, 0.003902)">
            <g id="middle" transform="translate(25.000000, 57.996098)">
                <g id="Group" transform="translate(0.000000, 1.000000)">
                    <path d="M31,97.36 C31,97.36 30,96.05 29.48,95.27 L29.48,94.83 L29.62,93.61 C29.9820454,92.6575619 29.7770735,91.5824262 29.09,90.83 C29.09,90.83 29.09,82.19 28.45,81.02 C28.45,81.02 27.72,74.97 27.96,74.34 C28.196542,72.997211 28.1659585,71.6209557 27.87,70.29 C27.5618453,69.0923737 27.3808445,67.8655901 27.33,66.63 C27.33,66.63 27.09,59.63 26.79,58.53 C26.79,58.41 26.73,58.32 26.71,58.24 C26.6437457,58.2696613 26.5725121,58.2866216 26.5,58.29 C26.5,58.29 25.87,58.29 26.16,58.05 C26.16,58.05 24.5,58.68 25.09,57.7 L26.01,56.88 C26.0403564,56.0663826 26.0236619,55.2516908 25.96,54.44 C25.96,54.44 24.96,52.88 25.28,55.31 C25.28,55.31 25.09,57.17 24.5,57.02 C24.5,57.02 24.06,56.88 24.35,56.02 C24.2182598,55.3620281 24.1712114,54.6899089 24.21,54.02 C24.21,54.02 23.52,51.73 24.74,50.8 C24.74,50.8 28.26,50.07 28.89,52.31 C28.89,52.31 29.57,52.12 29.67,51.73 L29.67,45 C29.7277107,44.5609454 29.8595867,44.1348847 30.06,43.74 C30.2196631,41.8024548 30.1559107,39.8529739 29.87,37.93 C29.4816087,36.21888 29.3335184,34.4619905 29.43,32.71 C29.43,32.71 29.43,27.05 29.23,26.47 C29.23,26.47 29.43,23.88 28.55,23 C28.55,23 27.28,19.39 27.28,19.1 C27.28,19.1 27.38,18.03 25.57,17.98 C25.57,17.98 20.45,16.71 20.26,16.22 C20.26,16.22 19.13,14.66 18.55,14.76 L14.79,17.64 L10.89,15.64 C9.10524554,17.1624966 6.9231937,18.1442465 4.6,18.47 C4.6,18.47 2.94,19 2.89,20.08 C2.89,20.08 2.74,21.78 2.74,22.08 C2.21819487,23.0234594 1.82471724,24.0323764 1.57,25.08 C1.57,25.08 2.06,28.3 1.77,29.08 C1.34635658,31.0519436 1.13183711,33.0630637 1.13,35.08 C1.25912567,36.2330629 1.25912567,37.3969371 1.13,38.55 C0.768620262,40.9732677 0.768620262,43.4367323 1.13,45.86 C1.13,45.86 2.35,52.45 2.54,52.64 L4.05,52.79 C4.05,52.79 3.86,54.11 4.15,54.35 C4.15,54.35 4.78,61.35 5.47,62.79 C5.47,62.79 6.35,67.18 6.35,67.96 C6.35,67.96 7.03,77.47 6.83,78.5 C6.89843354,80.0158265 7.19510359,81.5126617 7.71,82.94 C7.70050013,83.6314937 7.63022965,84.3208137 7.5,85 C7.5,85 7.11,91.3 9.02,94.17 C8.94676305,94.6470751 8.79824778,95.1094977 8.58,95.54 C8.29,95.98 8.58,95.69 8.58,95.69 C8.58,95.69 7.58,97.59 8.34,98.42 C8.34,98.42 9.12,100.17 11.41,99.35 C11.41,99.35 13.75,98.35 13.65,97.49 C13.5125886,96.9809127 13.4954709,96.4468418 13.6,95.93 L14.04,95.49 L14.19,93.98 L15.12,92.66 C15.1470792,91.187963 14.9308356,89.7215611 14.48,88.32 C14.48,88.32 14.09,83.32 13.85,82.57 C13.8832527,81.7145293 13.9970897,80.8640992 14.19,80.03 C14.19,80.03 14.19,73.93 14.04,72.91 C14.1752631,72.1335138 14.3555675,71.3655508 14.58,70.61 C14.5991979,68.4006505 14.7394079,66.1940113 15,64 C15.2589288,63.105181 15.4527683,62.1927986 15.58,61.27 C15.58,61.27 15.68,59.61 16.02,59.27 C16.02,59.27 16.07,58.27 16.56,60.93 C16.9325569,63.3691757 17.7602594,65.7165943 19,67.85 C19.2975776,68.7651089 19.4625855,69.7181138 19.49,70.68 C19.5822148,71.4524931 19.7772755,72.2091938 20.07,72.93 C20.07,72.93 21.19,82.44 21.07,84.1 C21.07,84.1 20.48,91.66 23.21,93.75 L23,96 C23,96 24.31,96.58 24.95,96.93 C24.95,96.93 25.95,97.85 25.88,98.39 C25.88,98.39 25.97,99.27 29.88,99.51 C29.94,99.51 32.53,99.17 31,97.36 Z M24.19,34.24 C24.234994,35.0239363 24.4002582,35.7962936 24.68,36.53 C24.825943,37.6811595 24.9060733,38.8397097 24.92,40 C24.92,40 25.02,41.32 25.31,41.41 C25.31,41.41 25.31,42.83 25.26,43.22 L24.77,43.46 C24.6678202,41.7815123 24.4573826,40.1113722 24.14,38.46 C23.9848851,37.0565394 24.0016759,35.6393914 24.19,34.24 Z M6.82,36.39 C6.29,36.97 6.48,39.39 6.48,39.39 L5.55,41.15 C5.41910442,40.531863 5.47123048,39.8889749 5.7,39.3 C5.82632824,38.4092096 5.85984119,37.5077112 5.8,36.61 C5.94,36.12 6.09,33.49 6.09,33.49 C7.26,32.83 6.82,36.39 6.82,36.39 Z" id="Shape" fill="#858585" fill-rule="nonzero"></path>
                    <path d="M24.72,50.73 C23.5,51.66 24.19,53.95 24.19,53.95 C24.1512114,54.6199089 24.1982598,55.2920281 24.33,55.95 C24.04,56.83 24.48,56.95 24.48,56.95 C25.07,57.1 25.26,55.24 25.26,55.24 C24.92,52.81 25.94,54.37 25.94,54.37 C26.0036619,55.1816908 26.0203564,55.9963826 25.99,56.81 L25.07,57.63 C24.48,58.63 26.14,57.98 26.14,57.98 C25.85,58.22 26.48,58.22 26.48,58.22 C26.5525121,58.2166216 26.6237457,58.1996613 26.69,58.17 C26.53,57.55 26.69,58.1 27.07,57.93 C27.07,57.93 28.17,57.24 28.73,56.81 C28.93,56.49 28.73,55.81 28.73,55.81 C28.73,55.03 28.88,52.15 28.88,52.15 C28.24,50 24.72,50.73 24.72,50.73 Z" id="Path" fill="#333333" fill-rule="nonzero"></path>
                    <path d="M11.5,14.54 L10.87,15.61 C10.87,15.61 12.87,30.61 15.07,33.12 C15.07,33.12 18.97,21.02 18.82,15.07 L18.33,14.29 L11.5,14.54 Z" id="Path" fill="#FFFFFF"></path>
                    <path d="M9.75,6.73 C9.75,6.73 9.07,2.73 10.58,1.73 C10.58,1.73 13.89,-1.27 17.26,1.54 C18.4495527,2.84649314 18.9698296,4.62871825 18.67,6.37 C18.67,6.37 19.55,5.98 19.5,6.71 C19.5,6.71 19.41,8.08 19.11,8.27 C19.11,8.27 18.43,9.27 18.11,9.15 C18.0764042,10.1177428 17.9626818,11.0810382 17.77,12.03 C17.7111772,12.7795357 17.7583075,13.5336215 17.91,14.27 L15.67,16.42 L14.67,16.61 L11.5,14.54 L11.36,12 C11.36,12 10.48,9.61 10.48,9.41 C10.48,9.41 9.94,9.61 9.89,9.27 C9.89,9.27 9.31,8.1 9.16,7.85 C9.16,7.8 9.07,6.44 9.75,6.73 Z" id="Path" fill="#858585"></path>
                    <path d="M15.07,33.12 L16.72,27.46 C16.6558596,25.1025224 16.2309305,22.7687846 15.46,20.54 L16.46,18.1 L15.46,16.54 L14.33,16.54 L13.33,18.19 L14.06,20.54 C13.47,20.97 12.64,26.1 12.64,26.1 C12.64,26.1 13.5,31 15.07,33.12 Z" id="Path" fill="#B9C99F"></path>
                    <path d="M14.72,45.17 L16.14,45.17 L15.5,40.44 C15.5,40.44 15.31,44.49 14.72,45.17 Z" id="Path" fill="#FFFFFF"></path>
                    <path d="M6.09,33 C6.09,33 5.94,35.63 5.8,36.12 C5.85986985,37.0143814 5.82635545,37.9125673 5.7,38.8 C5.47040361,39.3922707 5.41828101,40.038591 5.55,40.66 L6.48,38.9 C6.48,38.9 6.29,36.51 6.82,35.9 C6.82,35.92 7.26,32.36 6.09,33 Z" id="Path"></path>
                    <path d="M24.77,43.41 L25.26,43.17 C25.31,42.78 25.31,41.36 25.31,41.36 C25.02,41.27 24.92,39.95 24.92,39.95 C24.9041859,38.8064019 24.8240593,37.6645985 24.68,36.53 C24.4002582,35.7962936 24.234994,35.0239363 24.19,34.24 C24.0199223,35.6348346 24.0199223,37.0451654 24.19,38.44 C24.4893291,40.082572 24.6830596,41.7426422 24.77,43.41 L24.77,43.41 Z" id="Path"></path>
                    <path d="M25,56.17 C25,56.07 25,55.95 25,55.85 C24.8385066,55.3729277 25.0570225,54.8502033 25.51,54.63 C25.7874782,54.406575 26.089409,54.2153521 26.41,54.06 C27.86,53.34 25.65,57.06 25.65,57.06 C25.5749348,57.2794689 25.4398174,57.4734835 25.26,57.62 C25.1,57.74 25.36,57.81 25.26,57.99 C25.1881858,58.1539958 25.1507487,58.3309711 25.15,58.51 C25.15,58.68 25.25,58.73 25.37,58.91 C25.67,59.37 26.31,59.39 26.76,59.69 L27.35,60.09 C27.6275462,60.2461674 27.9187513,60.3767076 28.22,60.48 C28.6917842,60.7735691 29.2139622,60.9770151 29.76,61.08 C29.88,61.08 30.26,61.24 30.38,61.28 C30.5,61.32 30.62,61.28 30.75,61.36 C30.88,61.44 30.94,61.36 31.08,61.36 C31.22,61.36 31.3,61.36 31.42,61.36 C31.33,61.19 31.48,61.01 31.55,60.87 C31.7096493,60.6345115 31.790204,60.3543213 31.78,60.07 C31.78,59.75 32.38,58.95 32.46,59.25 C32.66,59.94 32.03,63.66 32.29,64.31 C32.5384289,64.7572036 32.6299614,65.2747138 32.55,65.78 C32.48,66.09 32.17,67.03 31.67,66.68 C31.46,66.53 31.4,66.01 31.33,65.78 C31.1,64.91 31.81,61.78 31.73,60.85 C31.7782606,60.3916035 31.8016283,59.9309271 31.8,59.47 C31.73,59.21 32.54,59.69 32.41,59.93 C32.62,59.6 32.86,59.93 33.02,59.6 C33.1735443,59.6601499 33.3182015,59.7408888 33.45,59.84 C33.68,59.96 33.88,59.99 34,60.23 C34.12,60.47 34,60.79 33.83,61.06 C33.4601411,61.669885 33.0278122,62.2396207 32.54,62.76 C31.75,63.58 31.25,64.67 30.41,65.42 C30.0860221,65.7328126 29.7148096,65.9926613 29.31,66.19 C28.75,66.42 28.31,66.09 27.78,65.98 C27.25,65.87 26.92,65.9 26.48,65.8 C26.1061915,65.6984916 25.7441755,65.5577076 25.4,65.38 C24.901236,65.1497659 24.4170009,64.8892809 23.95,64.6 C23.5538858,64.3824415 23.2120425,64.078201 22.95,63.71 C22.89,63.6 22.89,63.44 22.83,63.32 C22.77,63.2 22.57,62.88 22.47,62.66 C22.2714525,62.228951 22.1986595,61.7505972 22.26,61.28 C22.26,60.9 22.4,60.52 22.44,60.15 C22.4974513,59.8464367 22.5308881,59.5388176 22.54,59.23 C22.54,59.13 22.44,59.02 22.42,58.9 C22.43273,58.3287206 22.5656128,57.766524 22.81,57.25 C22.8671672,56.8297275 22.9711464,56.4171646 23.12,56.02 C23.38,55.5 23.67,55.57 24.12,55.79 C24.3140612,55.8362875 24.5045505,55.896442 24.69,55.97 L25,56.17 Z" id="Path" fill="#B9C99F" fill-rule="nonzero"></path>
                    <path d="M24.65,50.61 C23.43,51.53 24.11,53.83 24.11,53.83 C24.0784773,54.500286 24.1288495,55.1719144 24.26,55.83 C23.97,56.7 24.41,56.83 24.41,56.83 C24.99,56.98 25.19,55.12 25.19,55.12 C24.85,52.68 25.87,54.24 25.87,54.24 C25.9335952,55.0516941 25.9502896,55.8663821 25.92,56.68 L24.99,57.51 C24.41,58.51 26.07,57.85 26.07,57.85 C25.77,58.1 26.41,58.1 26.41,58.1 L26.62,58.1 C26.45,57.47 26.62,58.03 26.99,57.86 C26.99,57.86 28.1,57.17 28.66,56.74 C28.86,56.42 28.66,55.74 28.66,55.74 C28.66,54.96 28.81,52.08 28.81,52.08 C28.16,49.88 24.65,50.61 24.65,50.61 Z" id="Path" fill="#858585" fill-rule="nonzero"></path>
                    <path d="M21.67,25.08 C21.5469792,24.4385998 21.5778231,23.7771682 21.76,23.15 L21.93,23.07 C21.93,23.07 22.32,24.48 21.93,24.95" id="Path" fill="#FFFFFF" fill-rule="nonzero"></path>
                    <path d="M22.24,24.87 C22.24,24.87 22.3,24.94 22.37,24.94 L22.37,24.94 C22.43,24.94 22.49,24.94 22.49,24.87 L22.49,23.29 C22.49,23.29 22.43,23.22 22.37,23.22 L22.37,23.22 C22.3,23.22 22.24,23.22 22.24,23.29 L22.24,24.87 Z" id="Path" fill="#FFFFFF" fill-rule="nonzero"></path>
                    <path d="M21.14,24.85 C21.14,24.85 21.2,24.92 21.27,24.92 L21.27,24.92 C21.33,24.92 21.39,24.92 21.39,24.85 L21.39,23.27 C21.39,23.27 21.33,23.19 21.27,23.19 L21.27,23.19 C21.2,23.19 21.14,23.19 21.14,23.27 L21.14,24.85 Z" id="Path" fill="#FFFFFF" fill-rule="nonzero"></path>
                    <path d="M22.86,25 C22.9350132,24.6712533 22.9818496,24.3367075 23,24 C23.0697292,23.6711379 23.1065772,23.3361558 23.11,23 C23.11,22.5 22.88,22.94 22.85,23.19 C22.82,23.44 22.8,23.51 22.79,23.67 C22.79,24.06 22.62,24.48 22.64,24.86 L22.86,25 Z" id="Path" fill="#FFFFFF" fill-rule="nonzero"></path>
                    <path d="M20.4,25.48 C21.4796153,25.6654177 22.5750595,25.7424673 23.67,25.71 L23.77,24.76 C22.6997633,24.7382366 21.6315101,24.6581176 20.57,24.52 L20.4,25.48 Z" id="Path" fill="#FFFFFF"></path>
                    <path d="M15.57,34.05 C15.57,34.05 21.71,27.48 22.15,23.94 L21.21,22.94 L22.87,18.75 L19.87,16.94 L15.57,34.05 Z" id="Path" fill="#858585"></path>
                </g>
                <g id="Group" transform="translate(65.000000, 0.000000)">
                    <path d="M31.86,37.4 C31.8226958,37.0342822 31.8226958,36.6657178 31.86,36.3 C31.8501688,35.6712637 31.7456625,35.047597 31.55,34.45 C31.505664,32.7031064 31.2230547,30.9704424 30.71,29.3 C30.613378,28.5736527 30.5566263,27.842557 30.54,27.11 C30.3312236,26.58463 30.1803326,26.0380692 30.09,25.48 C30.0862632,24.434228 29.9071101,23.3964926 29.56,22.41 C29.75,20.08 29.05,19.85 29.05,19.85 C28.23,19.52 22.3,16.34 22.3,16.34 L21.21,15.13 C21.21,15.13 14.65,13.84 14.01,14.54 C13.4467255,15.0948925 12.8228002,15.5846403 12.15,16 C10.1,16.76 5.83,18 5.83,18 C5.09,18 5.07,19.38 5.07,19.38 C4.60337627,20.6692205 4.30752943,22.0139788 4.19,23.38 C4.08676423,23.7917717 4.03967108,24.21561 4.05,24.64 C4.17674857,25.203984 4.22387307,25.7829422 4.19,26.36 C3.90481216,27.8259012 3.71773016,29.3091942 3.63,30.8 C3.05704592,32.2800071 2.68702135,33.8307465 2.53,35.41 C1.53,36.41 1.75,39.15 1.75,39.15 C1.58,39.91 1.16,42.98 1.16,42.98 C1.05,43.54 0.96,49.16 0.96,49.16 L1.13,49.05 C1.03898461,50.1937812 0.868573908,51.3298526 0.62,52.45 C0.31,53.13 1.02,54.08 1.02,54.08 C1.25781638,54.7380764 1.56628577,55.3684268 1.94,55.96 C2.48618691,56.1751595 3.05225897,56.3359373 3.63,56.44 C3.92466491,56.4974667 4.23010419,56.4363788 4.48,56.27 C4.45950985,56.7244513 4.50669221,57.179424 4.62,57.62 C4.25,58.44 4.25,64.37 4.25,64.37 C4.18818892,65.5451412 4.23505466,66.7234798 4.39,67.89 C4.44147811,68.1406344 4.42066987,68.4007374 4.33,68.64 L4.64,73.48 C4.45531877,74.3200846 4.38135761,75.1807236 4.42,76.04 C4.5,76.63 4.92,79.16 4.92,79.16 C5.07371199,80.7353178 5.34784696,82.2965498 5.74,83.83 C5.81255112,84.7898888 5.99028284,85.7389091 6.27,86.66 L6.58,92.6 L6.98,93.38 C6.46930565,94.581077 5.68919517,95.6485966 4.7,96.5 C4.12927646,97.0436961 3.77415305,97.7752503 3.7,98.56 L3.58,98.78 C3.41,99.23 5.3,99.29 5.3,99.29 C6.46355973,99.3562772 7.62679677,99.1544213 8.7,98.7 C9.28096995,98.5050373 9.64459461,97.9282534 9.57,97.32 C9.67428137,96.7901183 9.97415579,96.3188871 10.41,96 L11.17,96.08 C11.8807124,95.7714721 12.5079404,95.2984805 13,94.7 L12.86,93.94 L13.39,94.11 C13.2478384,94.7064624 13.2274315,95.3254696 13.33,95.93 L13.25,97.25 L13.56,97.56 L13.56,98.44 C13.5628962,98.7375726 13.5829294,99.0347313 13.62,99.33 C13.71,100.07 14.83,100.33 14.83,100.33 C15.8947695,100.448546 16.9704229,100.428378 18.03,100.27 C18.6027531,100.010386 18.9868001,99.4573587 19.03,98.83 C19.37,97.94 18.47,96.75 18.47,96.75 C18.27,96.14 17.47,94.56 17.47,94.56 C17.84,94.39 19.16,90.23 19.16,90.23 C20.16,87.81 20.99,79.13 20.99,79.13 C20.99,78.57 21.27,74.43 21.27,74.43 C21.35,74.12 21.52,72.21 21.52,72.21 C21.52,70.21 22.7,61.75 22.7,61.75 C22.7,61.39 22.9,58.52 22.9,58.52 C23.2431918,56.9660219 23.4671768,55.3880982 23.57,53.8 L24.33,53.4 L24.44,49.63 C24.81,48.37 24.28,46.63 24.5,45.9 C24.72,45.17 27.5,42.8 27.5,42.8 C29.84,41.31 30.34,40.24 30.34,40.24 C30.7795575,39.7649314 31.1590684,39.2376464 31.47,38.67 C31.8209405,38.3488741 31.9702247,37.8627435 31.86,37.4 Z M5.18,52.24 C5.04699477,52.6798259 4.959864,53.1322357 4.92,53.59 L4.53,54.66 L4.39,54.47 C4.38853477,53.8975633 4.30433076,53.3283442 4.14,52.78 C4.14,52.78 3.94,51.91 4.14,51.63 C4.48482829,50.9002116 4.41232573,50.0416287 3.95,49.38 C3.95,49.38 4.37,49.43 4.4,49.07 C4.4,49.07 4.85,47.01 5.04,46.59 L5.27,44.99 L5.38,44.99 C5.38,44.99 4.99,48.84 4.45,51.74 L5.18,52.24 Z M15.24,75.38 C15.24,75.38 14.24,81.57 14.51,83.56 C13.6664352,86.5382585 13.0546087,89.5773311 12.68,92.65 C12.4499389,91.9061156 12.1415435,91.1887612 11.76,90.51 L11.87,90.34 C11.87,90.34 11.5,90.25 11.67,89.07 C11.5475642,88.1118463 11.5107519,87.1446883 11.56,86.18 C11.5970758,85.6111436 11.539631,85.0400752 11.39,84.49 C11.39,84.49 11.25,77.29 10.94,76.49 L10.63,75.9 C10.63,75.9 10.43,74.9 10.32,74.63 C10.21,74.36 10.86,74.57 10.66,71.48 C10.7844088,69.9978741 11.0015002,68.5249923 11.31,67.07 C11.5710737,65.5969368 11.955767,64.1484828 12.46,62.74 C12.46,62.74 14.06,59.22 13.89,57.74 L14,57.74 C14,57.74 13.92,60.67 14.43,61.4 C14.43,61.4 14.43,63.25 14.85,63.76 C14.85,63.76 14.9,65.16 14.85,65.5 C14.8648505,66.8950597 14.995297,68.2864889 15.24,69.66 L15.3,71.32 C15.136175,72.6673828 15.116062,74.0283646 15.24,75.38 L15.24,75.38 Z M26.57,36.64 L24.8,39.06 L24.72,39.37 L24.46,39.45 L24.46,36.89 C24.5343355,36.5736908 24.6556849,36.2703173 24.82,35.99 C25.2429438,34.9092017 25.6002603,33.8038582 25.89,32.68 L26.17,33.1 C26.17,33.1 25.95,35.18 26.85,35.91 L26.57,36.64 Z" id="Shape" fill="#858585" fill-rule="nonzero"></path>
                    <path d="M14.65,13.75 C14.65,13.75 14.57,12.91 13.78,14.91 C13.1896371,16.9909017 12.7583935,19.1136903 12.49,21.26 C12.49,21.26 11.98,25.7 12.35,26.66 C12.35,26.66 14.74,33.66 15.02,34.33 L17.61,29.19 C18.2021132,27.9159217 18.696862,26.5988202 19.09,25.25 C19.09,25.25 20.98,18.42 21.09,17.61 C21.09,17.61 21.83,15.52 20.76,14.68 L14.65,13.75 Z" id="Path" fill="#F5F1F8" fill-rule="nonzero"></path>
                    <path d="M14,7.23 C14,7.23 14.17,7.46 14.22,7.15 C14.22,7.15 14.39,3.44 15.54,2.84 C15.54,2.84 17.65,0.59 20.01,1.92 C20.01,1.92 23.53,3.41 22.4,8.19 C22.4,8.19 22.88,8.13 22.85,8.44 C22.85,8.44 22.85,9.17 22.63,9.26 C22.63,9.26 22.46,10.1 22.32,10.18 L22.32,10.72 L21.79,11.08 C21.7359363,11.2565839 21.6958132,11.4371382 21.67,11.62 C21.6317044,12.440372 21.3496933,13.2306994 20.86,13.89 L20.75,14.68 C20.75,14.68 20.16,16.26 17.15,18 C17.15,18 13.58,15.27 14.45,13.72 L14.56,12.38 C14.4527841,11.8217681 14.4527841,11.2482319 14.56,10.69 C14.5652118,10.4323178 14.4263761,10.1932118 14.2,10.07 C14.2,10.07 13.72,9.93 13.83,9.26 C13.83,9.26 13.58,8.44 13.83,8.26 C13.78,8.3 13.5,7.43 14,7.23 Z" id="Path" fill="#858585" fill-rule="nonzero"></path>
                    <path d="M15.33,18.25 C15.33,18.25 16,17.46 18.53,18.59 L17.53,18.81 L17.22,20.08 C17.3358705,20.4830353 17.3931243,20.9006509 17.39,21.32 C17.39,21.32 16.49,29.58 16.68,30.76 L15,34.33 L13.71,30.57 C13.7839806,28.4346379 14.0822873,26.3129733 14.6,24.24 C14.8588131,23.0966596 15.2375778,21.9838288 15.73,20.92 C15.9290396,20.4221109 16.0045248,19.8834205 15.95,19.35 L15.33,18.25 Z" id="Path" fill="#B9C99F" fill-rule="nonzero"></path>
                    <path d="M13.85,8.43 L13.26,8.35 C12.75,8.29 12.47,8.21 12.52,7.63 C12.5989823,7.21118166 12.7230372,6.80213572 12.89,6.41 C12.9534125,5.84384917 13.1302661,5.29628306 13.41,4.8 C13.49,4.71 13.62,4.66 13.68,4.57 C13.8331624,4.30333504 13.9668442,4.02594525 14.08,3.74 C14.24,3.4 14.36,3.03 14.51,2.68 C14.6998754,2.24657064 15.008404,1.87564303 15.4,1.61 C15.6,1.47 15.84,1.38 16.05,1.23 C16.26,1.08 16.25,1.02 16.35,0.96 C16.7602546,0.782964124 17.2032127,0.694372501 17.65,0.7 C18.201225,0.700059342 18.7520388,0.730103728 19.3,0.79 C19.686031,0.815937685 20.0681934,0.882983722 20.44,0.99 C20.87,1.13 21.23,1.36 21.65,1.51 C22.07,1.66 22.71,1.64 23.06,2.12 C23.3052536,2.49940785 23.4907514,2.91424847 23.61,3.35 C23.94,4.43 23.8,5.62 24.05,6.72 C24.1983799,7.42023345 24.2721251,8.13422144 24.2700446,8.85 C24.2700446,9.17 24.2700446,9.47 23.99,9.65 C23.71,9.83 23.57,9.71 23.32,9.65 C23.07,9.59 23,9.65 22.83,9.5 C22.66,9.35 22.46,9.23 22.48,9.03 C22.48,9.3 22.2,9.52 22.07,9.75 C21.9773,9.9630638 21.9036783,10.183929 21.85,10.41 C21.56,11.26 22,12.31 21.56,13.1 C21.45,13.3 21.27,13.79 21.03,13.89 C20.46,14.12 20.38,13.13 20.38,12.81 C20.4182568,12.3002847 20.6259467,11.8180219 20.97,11.44 C21.38,10.87 21.13,10.01 21.48,9.44 C21.64,9.16 21.83,8.9 22.01,8.63 C22.19,8.36 22.53,7.08 21.81,6.97 C21.6907474,6.93397558 21.5738544,6.89055818 21.46,6.84 L20.82,6.7 C20.3044085,6.49744563 19.7538405,6.39888716 19.2,6.41 C18.870383,6.34350286 18.5359915,6.30337587 18.2,6.29 L17.49,6.29 C16.95,6.29 16.39,6.01 15.89,6.29 C15.69,6.39 15.6,6.38 15.5,6.53 C15.4,6.68 14.59,6.78 14.59,6.91 C14.5954994,7.07443197 14.647511,7.23393422 14.74,7.37 C14.8047373,7.59544466 14.8047373,7.83455534 14.74,8.06 C14.7001332,8.50243708 14.7001332,8.94756292 14.74,9.39 C14.74,9.7 14.84,10.69 14.58,10.88 C14.39,12.24 13.88,13.61 14.35,14.95 C14.48,15.31 14.71,16.25 14.87,16.58 C14.69,16.58 14.33,16.1 14.16,16.02 C14.0992176,15.6338946 13.9882799,15.2573785 13.83,14.9 C13.76,14.59 13.7,14.24 13.63,13.9 C13.5698737,13.5929155 13.5698737,13.2770845 13.63,12.97 C13.7002112,12.561515 13.8424199,12.168748 14.05,11.81 C14.3375676,11.2561191 14.4948977,10.6438999 14.51,10.02 C14.5311828,9.70716239 14.5007771,9.39297053 14.42,9.09 C14.33,8.67 14.08,8.82 13.97,8.43 C13.9300759,8.43348486 13.8899241,8.43348486 13.85,8.43 L13.85,8.43 Z" id="Path" fill="#B9C99F" fill-rule="nonzero"></path>
                    <path d="M21,27.16 C22.338333,27.1446234 23.6743454,27.0444225 25,26.86 L24.75,28 C23.2732784,28.1828454 21.78781,28.2863275 20.3,28.31 L21,27.16 Z" id="Path" fill="#FFFFFF" fill-rule="nonzero"></path>
                    <path d="M16.73,32.48 C16.73,32.48 19.6,30.82 24.91,20.16 C25.71,18.57 21.63,19.16 21.63,19.16 L16.73,32.48 Z" id="Path" fill="#858585" fill-rule="nonzero"></path>
                    <path d="M14.15,39.73 L14.15,39.84 L14.61,44.37 L14.11,45.24 L12.67,43.92 C12.67,43.92 14.09,40.16 14.15,39.73 Z" id="Path" fill="#B9C99F" fill-rule="nonzero"></path>
                    <path d="M22.12,27.41 C22.1885051,27.0804246 22.2319626,26.7461362 22.25,26.41 C22.323333,26.0818859 22.3569078,25.7461381 22.35,25.41 C22.35,24.92 22.13,25.35 22.1,25.59 C22.07,25.83 22.1,25.9 22.1,26.06 C22.1,26.44 21.93,26.86 21.94,27.23 L22.12,27.41 Z" id="Path" fill="#FFFFFF" fill-rule="nonzero"></path>
                    <path d="M23.22,27.41 C23.2933723,27.081264 23.3368826,26.7465692 23.35,26.41 C23.423333,26.0818859 23.4569078,25.7461381 23.45,25.41 C23.45,24.92 23.24,25.35 23.2,25.59 C23.16,25.83 23.2,25.9 23.2,26.06 C23.2,26.44 23.03,26.86 23.04,27.23 L23.22,27.41 Z" id="Path" fill="#FFFFFF" fill-rule="nonzero"></path>
                    <path d="M22.74,27.49 C22.8036101,27.1596175 22.847024,26.825665 22.87,26.49 C22.9428594,26.1618098 22.9764285,25.826119 22.97,25.49 C22.97,24.99 22.75,25.43 22.72,25.67 C22.69,25.91 22.72,25.98 22.66,26.14 C22.66,26.52 22.5,26.93 22.51,27.31 L22.74,27.49 Z" id="Path" fill="#FFFFFF" fill-rule="nonzero"></path>
                    <path d="M23.42,25.32 C23.42,25.32 23.81,25.32 23.42,26.37" id="Path" stroke="#FFFFFF" stroke-width="0.12" stroke-linecap="round"></path>
                </g>
            </g>
        </g>
    </g>
</svg>