<?xml version="1.0" encoding="UTF-8"?>
<svg width="143px" height="221px" viewBox="0 0 143 221" version="1.1" xmlns="http://www.w3.org/2000/svg" xmlns:xlink="http://www.w3.org/1999/xlink">
    <title>Layered</title>
    <g id="Page-1" stroke="none" stroke-width="1" fill="none" fill-rule="evenodd">
        <g id="Layered" transform="translate(0.000000, 0.003902)">
            <g id="top" transform="translate(38.197778, 0.000000)">
                <path d="M27.5522222,32.2260979 C27.5522222,32.2260979 24.5522222,35.2260979 11.1622222,39.9660979 C11.1622222,39.9660979 9.56222222,39.5560979 8.96222222,41.5760979 C8.96222222,41.5760979 4.79222222,54.6860979 4.79222222,55.9360979 C4.79222222,55.9360979 5.56222222,73.3960979 6.64222222,75.5460979 C6.64222222,75.5460979 9.26222222,86.9260979 14.6422222,93.4160979 L14.6422222,93.6560979 C14.6422222,93.6560979 15.0022222,101.526098 13.4522222,106.286098 C13.4522222,106.286098 10.5322222,120.116098 10.2322222,122.076098 L11.2322222,122.916098 C11.2322222,122.916098 10.2322222,139.716098 9.98222222,141.686098 C9.75139425,144.68487 9.81167591,147.698953 10.1622222,150.686098 C10.1622222,150.686098 9.16222222,161.056098 8.67222222,162.686098 C8.18222222,164.316098 6.05222222,180.386098 6.05222222,181.816098 C6.05222222,183.246098 3.96222222,203.996098 4.55222222,208.066098 C4.55222222,208.066098 0.142222222,213.486098 0.0822222222,215.566098 C0.0822222222,215.566098 -0.657777778,219.566098 2.30222222,220.206098 C2.30222222,220.206098 7.09222222,220.726098 12.6522222,215.596098 C12.6522222,215.596098 13.0922222,212.986098 14.2222222,212.286098 L15.2222222,212.286098 L17.7022222,209.996098 L18.0522222,206.256098 C18.0522222,206.256098 20.7422222,201.816098 20.9222222,199.556098 C20.9222222,199.556098 23.7022222,177.116098 24.1322222,175.556098 C24.1322222,175.556098 27.0122222,156.556098 27.4422222,156.166098 C28.6149484,152.987041 29.5737545,149.733114 30.3122222,146.426098 C30.6749733,144.340219 31.2582449,142.298769 32.0522222,140.336098 C32.0522222,140.336098 35.3622222,130.856098 36.0522222,128.336098 C36.3295316,127.230438 36.7077864,126.15258 37.1822222,125.116098 L37.8022222,125.116098 C37.8022222,125.116098 39.9722222,135.036098 40.6722222,136.256098 C40.6722222,136.256098 42.0622222,142.086098 41.8922222,144.346098 C42.8314821,146.394252 43.9667751,148.346688 45.2822222,150.176098 C45.6251078,151.369175 45.8593953,152.590817 45.9822222,153.826098 C45.9822222,153.826098 46.4122222,158.086098 47.8922222,160.006098 C49.3722222,161.926098 48.8922222,167.216098 49.8922222,170.086098 C50.8922222,172.956098 48.2422222,199.666098 53.5422222,205.146098 C53.5422222,205.146098 53.4622222,209.146098 53.5422222,209.926098 C53.5422222,209.926098 57.3722222,212.926098 58.5422222,213.146098 C59.7122222,213.366098 57.5422222,216.146098 64.4622222,218.146098 C64.4622222,218.146098 68.4622222,219.716098 71.2422222,218.326098 C71.905715,217.763717 72.2496354,216.910618 72.1617054,216.045307 C72.0737755,215.179997 71.565279,214.413517 70.8022222,213.996098 C70.8022222,213.996098 65.9322222,207.816098 65.9322222,207.386098 L66.4522222,206.946098 C66.4522222,206.946098 65.5822222,195.946098 65.7622222,195.206098 C66.6005396,190.114284 66.3929878,184.905074 65.1522222,179.896098 C65.1522222,179.896098 64.8022222,171.196098 64.7122222,168.596098 C64.7122222,168.596098 63.2322222,155.456098 62.9722222,154.846098 C63.1382795,152.128733 63.4890901,149.42582 64.0222222,146.756098 C64.0222222,146.756098 63.8422222,126.406098 63.4122222,124.146098 L64.2822222,123.016098 C64.2822222,123.016098 63.7622222,106.746098 63.2822222,105.016098 C63.2822222,105.016098 60.4122222,92.9260979 60.9322222,92.3160979 C60.9322222,92.3160979 67.1122222,83.6160979 67.9322222,81.4460979 C67.9322222,81.4460979 70.4622222,73.1860979 70.2822222,69.8760979 C70.1022222,66.5660979 70.1122222,57.0060979 70.1122222,56.6560979 C70.1122222,56.6560979 71.7622222,55.4360979 70.1922222,52.8360979 L65.1922222,40.6560979 C64.3559914,39.7004061 63.2212247,39.055492 61.9722222,38.8260979 C61.9722222,38.8260979 49.6222222,34.9160979 48.4922222,33.8260979 L46.8022222,31.8960979 L37.8022222,36.5860979 L27.5522222,32.2260979 Z" id="Path" fill="#333333"></path>
                <path d="M29.1222222,30.5160979 L27.8022222,32.1360979 C27.8022222,32.1360979 30.6322222,65.9460979 36.8022222,72.7460979 C36.8022222,72.7460979 45.3922222,38.8660979 46.2022222,35.7460979 C46.2022222,35.7460979 47.9122222,31.6160979 45.8022222,30.5560979 L29.1222222,30.5160979 Z" id="Path" fill="#F5F1F8"></path>
                <path d="M27.3422222,16.4960979 C27.3422222,16.4960979 26.1322222,7.99609791 29.6122222,5.06609791 C29.6122222,5.06609791 36.5022222,-1.33390209 43.5522222,3.85609791 C43.5522222,3.85609791 49.5522222,6.60609791 47.3622222,16.1660979 C47.3622222,16.1660979 49.7122222,16.0860979 49.7122222,17.7160979 C49.7122222,17.7160979 49.5522222,22.8160979 46.6322222,22.0860979 C46.6322222,22.0860979 45.3322222,28.8160979 45.6322222,30.5160979 C45.6322222,30.5160979 39.7122222,35.2160979 38.6322222,35.7060979 L36.3622222,35.8660979 C36.3622222,35.8660979 29.3122222,31.7360979 29.0622222,30.4360979 C29.0622222,30.4360979 29.2322222,24.1160979 28.4222222,22.5760979 C28.4222222,22.5760979 26.3122222,23.1460979 25.9822222,21.7660979 C25.9388463,20.7508932 25.7777682,19.7441554 25.5022222,18.7660979 C25.5022222,18.7660979 24.8022222,15.9260979 27.3422222,16.4960979 Z" id="Path" fill="#333333"></path>
                <path d="M36.1422222,83.9160979 L35.1422222,95.4760979 C35.1422222,95.4760979 37.3222222,95.4760979 38.6222222,95.3860979 C38.5722222,95.3860979 37.8822222,86.7860979 36.1422222,83.9160979 Z" id="Path" fill="#F5F1F8"></path>
                <path d="M36.7422222,72.8260979 L41.5322222,54.2260979 L38.8022222,43.7360979 L40.5022222,40.0860979 L38.6422222,37.1660979 L36.7722222,37.0860979 L33.5022222,40.6560979 L35.9322222,43.9960979 L32.2822222,61.9960979 C32.2822222,61.9960979 34.3022222,70.3660979 36.7422222,72.8260979 Z" id="Path" fill="#89A45E"></path>
                <path d="M25.7422222,16.0660979 C25.7422222,16.0660979 27.5922222,21.5360979 28.4822222,22.5760979 C28.9790042,23.6695484 29.4195788,24.7876734 29.8022222,25.9260979 L30.0922222,27.6460979 L31.3722222,28.9060979 C31.3722222,28.9060979 32.6622222,30.7360979 32.8222222,30.9060979 C35.3959427,33.5026155 39.5343678,33.6812212 42.3222222,31.3160979 C43.1470229,30.5579023 43.7867829,29.6205 44.1922222,28.5760979 C44.1922222,28.5760979 45.7522222,27.4360979 45.9022222,26.8460979 L46.0922222,26.9360979 L47.2822222,23.6760979 L47.0122222,23.5260979 C47.0122222,23.5260979 48.2722222,16.8460979 48.5122222,15.9560979 C48.7522222,15.0660979 47.3522222,16.1860979 47.3522222,16.1860979 C47.3522222,16.1860979 46.7522222,22.4260979 46.0522222,23.1160979 C46.0522222,23.1160979 44.8622222,26.0260979 44.5622222,26.0260979 C44.5622222,26.0260979 35.9222222,27.2460979 31.2722222,26.1560979 C31.2722222,26.1560979 30.6322222,22.9360979 28.7522222,21.5460979 C28.7522222,21.5460979 27.7522222,17.0060979 27.3322222,16.5460979 C26.9167429,16.1287658 26.3192252,15.9483831 25.7422222,16.0660979 Z" id="Path" fill="#89A45E" fill-rule="nonzero"></path>
                <path d="M48.1922222,16.4660979 C48.1922222,16.4660979 49.2922222,19.8560979 48.9022222,20.2560979 C48.6634451,21.4439612 48.24176,22.5875711 47.6522222,23.6460979 C47.3862828,24.4268371 47.2347125,25.2419488 47.2022222,26.0660979 L47.7722222,26.1760979 C47.7722222,26.1760979 48.9622222,22.3560979 49.2722222,21.4560979 C49.3241183,20.0655299 49.2201371,18.6735234 48.9622222,17.3060979 L48.5222222,15.6660979 L48.1922222,16.4660979 Z" id="Path" fill="#89A45E" fill-rule="nonzero"></path>
                <path d="M50.6422222,16.2160979 C50.38966,14.6276303 49.9741335,13.0694058 49.4022222,11.5660979 C48.4522222,9.19609791 48.4022222,6.50609791 47.2322222,4.22609791 C46.8228312,3.29597244 46.26563,2.43822036 45.5822222,1.68609791 C44.5822222,0.686097905 43.5022222,1.07609791 42.2222222,0.826097905 C41.2222222,0.636097905 40.3822222,0.246097905 39.3622222,0.0960979052 C38.513148,-0.0122821513 37.6548809,-0.0290451793 36.8022222,0.0460979052 C35.5693817,0.103408488 34.34076,0.23027703 33.1222222,0.426097905 C32.1280494,0.555084425 31.17318,0.896109216 30.3222222,1.42609791 C30.1122222,1.60609791 29.9622222,1.93609791 29.7422222,2.14609791 C29.3322222,2.53609791 28.8322222,2.82609791 28.4322222,3.20609791 C27.6354712,3.93457834 27.068926,4.87997892 26.8022222,5.92609791 C26.5822222,6.76609791 26.4422222,7.62609791 26.2022222,8.43609791 C26.0699852,9.11898483 25.8758506,9.78841447 25.6222222,10.4360979 C25.5222222,10.6560979 25.2422222,10.8060979 25.1022222,11.0260979 C24.4522222,12.0260979 24.6622222,13.6260979 24.5022222,14.8060979 C24.2675235,15.7320197 24.1367166,16.681208 24.1122222,17.6360979 C24.2022222,18.8060979 24.7422222,19.0060979 25.6822222,18.9860979 C25.4822222,18.3360979 24.9222222,16.0560979 27.4022222,16.5060979 L27.3322222,16.5060979 C28.1122222,16.8760979 27.5922222,13.7260979 27.5922222,13.7260979 C27.5222222,13.1660979 31.3722222,13.3460979 31.3722222,13.3460979 C32.3722222,12.7660979 33.6622222,13.2160979 34.8022222,12.9660979 C35.3422222,12.8460979 35.8022222,12.7760979 36.3722222,12.6460979 C37.0863589,12.5723504 37.8048008,12.5489592 38.5222222,12.5760979 C39.7558404,12.3686296 41.0172825,12.3923664 42.2422222,12.6460979 C42.4922222,12.6460979 43.4122222,12.7260979 43.7022222,12.7460979 C43.9922222,12.7660979 44.2222222,12.9060979 44.5322222,12.9060979 C44.9922222,12.9060979 46.6622222,12.9060979 46.8722222,13.2660979 C46.8722222,13.2660979 45.9822222,16.7160979 47.3622222,16.2660979 C47.3622222,16.2660979 49.1522222,15.9160979 49.6022222,17.2660979 L49.6822222,18.2660979 C49.9146406,18.2693746 50.1409409,18.1915838 50.3222222,18.0460979 C50.9122222,17.5760979 50.8022222,16.9160979 50.6422222,16.2160979 Z" id="Path" fill="#89A45E" fill-rule="nonzero"></path>
                <path d="M53.0822222,55.8360979 C52.8140232,54.4206004 52.8790738,52.9620986 53.2722222,51.5760979 L53.6622222,51.4060979 C53.6622222,51.4060979 54.5122222,54.5060979 53.6622222,55.5460979" id="Path" fill="#FFFFFF" fill-rule="nonzero"></path>
                <path d="M54.3422222,55.3660979 C54.3422222,55.4560979 54.4622222,55.5260979 54.6122222,55.5260979 L54.6122222,55.5260979 C54.7622222,55.5260979 54.8922222,55.4560979 54.8922222,55.3660979 L54.8922222,51.8860979 C54.8922222,51.7960979 54.7622222,51.7260979 54.6122222,51.7260979 L54.6122222,51.7260979 C54.4622222,51.7260979 54.3422222,51.7960979 54.3422222,51.8860979 L54.3422222,55.3660979 Z" id="Path" fill="#FFFFFF" fill-rule="nonzero"></path>
                <path d="M51.9222222,55.3260979 C51.9222222,55.4060979 52.0422222,55.4760979 52.1922222,55.4760979 L52.1922222,55.4760979 C52.3422222,55.4760979 52.4722222,55.4060979 52.4722222,55.3260979 L52.4722222,51.8360979 C52.4722222,51.7460979 52.3422222,51.6760979 52.1922222,51.6760979 L52.1922222,51.6760979 C52.0422222,51.6760979 51.9222222,51.7460979 51.9222222,51.8360979 L51.9222222,55.3260979 Z" id="Path" fill="#FFFFFF" fill-rule="nonzero"></path>
                <path d="M50.2722222,56.7060979 C50.2722222,56.7060979 55.8422222,57.5760979 57.4922222,57.2260979 L57.7122222,55.1160979 C57.7122222,55.1160979 50.7122222,54.8560979 50.7122222,54.5960979 L50.2722222,56.7060979 Z" id="Path" fill="#FFFFFF"></path>
            </g>
        </g>
    </g>
</svg>