<?xml version="1.0" encoding="UTF-8"?>
<svg width="143px" height="221px" viewBox="0 0 143 221" version="1.1" xmlns="http://www.w3.org/2000/svg" xmlns:xlink="http://www.w3.org/1999/xlink">
    <title>Layered</title>
    <g id="Page-1" stroke="none" stroke-width="1" fill="none" fill-rule="evenodd">
        <g id="Layered" transform="translate(0.000000, 0.003902)">
            <g id="back" transform="translate(0.000000, 69.996098)">
                <g id="Group" transform="translate(117.000000, 1.000000)" fill-rule="nonzero">
                    <path d="M6,42.25 C5.96990203,42.212397 5.94313434,42.1722454 5.92,42.13 L5.68,41.72 C5.68,41.66 5.55,41.54 5.55,41.48 L5.47,39.93 L5.86,39.66 L5.86,40.57 C5.86,40.57 5.99,41.31 6.23,41.43 C6.23,41.43 6.52,41.6 6.69,41.43 C6.73130069,41.0678403 6.73130069,40.7021597 6.69,40.34 C6.65499379,40.0276444 6.65499379,39.7123556 6.69,39.4 L6.05,38.66 L4.96,39.24 L4.34,39.94 C4.34,39.94 4.34,40.42 4.55,40.58 C4.55,40.58 4.68,41.97 5.02,42.12 C5.41516956,42.5925407 5.83932018,43.0400697 6.29,43.46 C6.36,43.46 6.43,43.24 6.43,43.22 C6.44,42.84 6.16,42.53 6,42.25 Z" id="Path" fill="#333333"></path>
                    <path d="M25.89,24 C25.89,24 25.47,20.33 25.35,20 C25.2108262,19.3932461 25.1073156,18.7788604 25.04,18.16 C25.04,18.16 24.71,15.09 24.62,14.85 C24.53,14.61 24.39,13.25 23.53,12.99 C23.53,12.99 19.44,11.36 19.16,11.15 L18.71,10.97 C18.71,10.97 17.33,9.4 17.2,9.53 L12.12,10.36 C11.9496064,10.6143534 11.7404013,10.8404298 11.5,11.03 C10.5154104,11.5591468 9.49254535,12.0137535 8.44,12.39 C8.44,12.39 7.12,12.94 6.86,13.45 C6.48612211,14.4797575 6.23766532,15.5508077 6.12,16.64 C6.12,16.64 5.95,18.17 5.95,18.92 C5.95,18.92 5.85,20.61 5.81,20.79 C5.77,20.97 4.93,24.48 4.68,25.31 C4.50845087,26.0004776 4.41784138,26.708574 4.41,27.42 C4.16166632,28.4837409 4.01434561,29.568557 3.97,30.66 C3.96942014,31.2507373 3.9124957,31.8400727 3.8,32.42 C3.8,32.42 3.64,35.42 3.61,35.81 L3.52,37.51 L3.9,37.69 C4.02135905,37.9638443 4.08273229,38.2604816 4.08,38.56 C4.04889022,38.9974344 3.98538272,39.4319594 3.89,39.86 C3.89,39.86 3.76,40.09 4.08,40.76 C4.08,40.76 4.37,41.97 4.38,42.2 C4.38,42.2 4.21,42.47 5.11,42.94 C5.11,42.94 5.91,43.39 6.11,43.5 L6.5,43.73 C6.4510009,44.7938852 6.47773502,45.8599083 6.58,46.92 C6.58,46.92 6.75,48.27 6.8,48.39 C6.85,48.51 7,50.27 7.02,50.66 C6.97537637,51.4593777 6.97537637,52.2606223 7.02,53.06 C7.14,53.35 6.86,54.46 7.02,56.06 C7.15014967,57.5337989 7.15014967,59.0162011 7.02,60.49 C6.96,61.14 6.96,63.61 7.02,64.13 C6.93823701,65.2704621 6.97173998,66.4162637 7.12,67.55 C7.37,67.96 7.12,68.03 7.21,68.55 C7.21,68.55 7.21,69.27 7.29,69.38 C6.90570377,70.3211085 6.34956247,71.1824493 5.65,71.92 C5.20223391,72.2997089 4.69109373,72.5975919 4.14,72.8 C4.14,72.8 3.14,73.26 3.22,74.17 C3.22,74.17 2.83,74.5 5.4,74.5 C5.4,74.5 8.26,74.32 8.48,73.73 C8.48,73.73 8.94,72.84 9.13,72.83 L9.86,73.13 C9.86,73.13 11.52,73 11.86,72.56 L11.86,71.69 C12.1937094,70.8517306 12.0966234,69.9032747 11.6,69.15 C11.6114481,68.5493639 11.5914206,67.9485405 11.54,67.35 C11.54,67.35 11.87,64.82 11.54,64.66 L11.54,63.66 C11.54,63.66 11.84,63.12 11.97,58.19 C12.1634588,57.0617454 12.1328771,55.9064398 11.88,54.79 C11.88,54.79 11.8,54.08 11.75,53.79 C11.75,53.79 11.88,52.06 11.89,51.91 C11.89,51.91 12.26,49.51 12.36,49.16 C12.36,49.16 13.03,46.47 13.22,45.78 C13.4506981,45.0314624 13.6212404,44.2656942 13.73,43.49 L13.86,42.78 L14.31,44.88 L15.17,49.15 C15.4032392,50.0812128 15.5505235,51.0318662 15.61,51.99 C15.8038684,53.0199863 16.1089895,54.0258801 16.52,54.99 C16.52,54.99 16.29,58.35 16.3,59.18 C16.3,59.18 16.08,60.34 16.01,61.09 C15.9576205,62.4279882 16.0380136,63.7678737 16.25,65.09 L16.32,66.09 C16.32,66.09 16.05,65.93 15.73,68.09 L15.81,69.49 L16.03,69.49 C15.9249844,69.8388932 15.8546438,70.1972955 15.82,70.56 C15.82,70.56 15.31,71.65 15.26,71.86 C14.9691446,72.45916 14.7380283,73.0855187 14.57,73.73 C14.62,74.02 14.25,74.57 15.02,74.83 C16.0005087,75.0509326 17.0236264,74.9885051 17.97,74.65 C17.97,74.65 19.41,74.45 19.24,73.51 C19.24,73.51 19.19,73 19.24,72.96 L19.55,72.59 L19.55,71.7 C19.7135969,71.0692156 19.5969532,70.3985148 19.23,69.86 L19.76,69.13 C19.7907638,68.7856841 19.8751135,68.4482852 20.01,68.13 C20.2585261,67.1487615 20.3927509,66.1420754 20.41,65.13 C20.41,65.13 20.83,60.13 20.78,59.65 C21.0032115,58.019786 21.050149,56.370269 20.92,54.73 C20.92,54.73 20.55,52.73 20.44,52.41 C20.33,52.09 20.57,50.1 20.44,48.77 C20.44,48.77 20.71,44.77 20.65,44.15 L20.65,43.25 C20.65,43.25 21.03,43 21.04,42.81 C21.2598442,42.7391523 21.4430201,42.58471 21.55,42.38 C21.9296822,41.8104055 22.2291591,41.1912623 22.44,40.54 C22.562402,40.1688259 22.6658687,39.7916732 22.75,39.41 L23.35,38.61 L24.1,38.74 C24.1,38.74 24.35,36.43 24.49,36.03 L24.49,35.54 C24.9557506,34.2433082 25.2907485,32.9033166 25.49,31.54 C25.6824295,30.5512216 25.7861749,29.5472342 25.8,28.54 C25.9068798,27.029168 25.9369185,25.5138809 25.89,24 Z M6.51,43.16 L6.42,43.16 L6.34,42.75 L6.54,42.75 L6.51,43.16 Z M5.98,42.29 L5.9,42.08 L6.51,42.15 L6.51,42.4 L5.98,42.29 Z M6.56,41.98 C6.33,41.65 5.68,41.64 5.68,41.64 L5.51,41.43 C5.45498408,40.9482322 5.45498408,40.4617678 5.51,39.98 L5.51,39.98 C5.62637131,39.9129058 5.73677565,39.8359573 5.84,39.75 C5.84,39.75 5.84,40.37 5.84,40.37 C5.84172376,40.6246397 5.88218692,40.8775345 5.96,41.12 C6.13,41.75 6.64,41.54 6.64,41.54 L6.56,41.98 Z M8.36,28.38 L8.29,28.92 C8.29,29.05 8.06,30.55 8.06,30.55 C7.84783068,31.2030564 7.68733613,31.8717837 7.58,32.55 C7.46,32.78 7.14,35.62 7.14,35.62 C7.14,36 6.88,38.71 6.88,38.71 L6.98,38.87 C6.91474956,39.4521562 6.81456895,40.0298644 6.68,40.6 C6.65669408,40.267074 6.65669408,39.932926 6.68,39.6 C6.77870004,39.170637 6.80238252,38.7274362 6.75,38.29 C6.75,38.11 6.58,37.59 6.58,37.59 L6.8,37.59 L7.02,35.12 L7.24,33.92 C7.24,33.72 7.7,30.75 7.7,30.75 L7.95,29.84 C8.26558203,28.9494213 8.3816513,28.0003842 8.29,27.06 L8.47,26.55 C8.44630547,26.7626754 8.44630547,26.9773246 8.47,27.19 C8.48,27.38 8.36,28.33 8.36,28.33 L8.36,28.38 Z M22.09,30.21 C22.09,30.21 21.67,32.44 21.56,32.59 C21.5602078,31.8766033 21.5033599,31.1643326 21.39,30.46 C21.39,30.46 21.39,29.35 21.39,29 C21.39,29 21.82,26.93 21.82,26.73 C22.0078988,27.1787699 22.2569216,27.5994164 22.56,27.98 C22.2502037,28.6650129 22.0899772,29.4081912 22.09,30.16 L22.09,30.21 Z" id="Shape" fill="#C2C2C2"></path>
                    <path d="M12.2,9.94 C12.1129946,10.0947617 12.0553589,10.2642785 12.03,10.44 C12.03,10.44 11.17,13.16 11.09,13.34 C11.09,13.34 10.03,16.58 10.35,17.34 C10.35,17.34 12.26,23.65 12.46,23.99 C12.46,23.99 14.54,19.16 14.75,18.71 C14.75,18.71 16.58,13.47 16.66,13.2 C16.66,13.2 17.94,10.2 17.25,9.51 L16.99,9.36 L12.2,9.94 Z" id="Path" fill="#FFFFFF"></path>
                    <path d="M10.72,5.8 C10.72,5.8 10.5,4.45 11.37,4.8 C11.37,4.8 11.68,5.1 11.44,4.17 C11.44,4.17 11.3,1.96 12.51,1.04 C13.5416912,0.114198896 15.0531839,-0.0393752268 16.25,0.66 C17.3499834,1.40684417 17.9825147,2.67190676 17.92,4 L17.71,5.11 C17.71,5.11 18.07,5 18.07,5.18 C18.1053879,5.53586186 18.0748781,5.89519846 17.98,6.24 C17.98,6.24 18.05,7.24 17.36,7.5 C17.2871808,7.88336287 17.1869229,8.26100096 17.06,8.63 L17.06,9.43 C17.06,9.43 17.37,9.98 14.06,12.49 C14.06,12.49 12.23,11.23 12.23,10.01 C12.247523,9.56545796 12.2240908,9.12024658 12.16,8.68 C11.8717362,8.22799755 11.7383566,7.69447923 11.78,7.16 C11.78,7.16 11.21,7.16 11.11,6.83 C10.9019145,6.52154047 10.7683992,6.16892326 10.72,5.8 Z" id="Path" fill="#C2C2C2"></path>
                    <path d="M13.08,13.12 L13.39,12.8 L13.9,12.74 L13.99,12.61 L14.6,13.39 C14.2999448,13.7220848 14.044459,14.0918669 13.84,14.49 C14.0458987,15.5306177 14.0830399,16.5975838 13.95,17.65 C13.7256901,18.9201948 13.5754365,20.2023591 13.5,21.49 L12.5,23.98 L11.28,20.32 C11.5939497,18.6649696 12.001267,17.0290231 12.5,15.42 C12.7801534,14.8993667 13.0273072,14.36164 13.24,13.81 C13.2726364,13.5681823 13.2157306,13.3227761 13.08,13.12 L13.08,13.12 Z" id="Path" fill="#DCE4CF"></path>
                    <path d="M18.84,14.67 C18.84,14.67 14.95,21.09 14.58,21.45 C14.21,21.81 15.42,17.57 15.42,17.57 L16.86,14.32 L18.84,14.67 Z" id="Path" fill="#C2C2C2"></path>
                    <path d="M16.08,19 L16.08,19.47 C16.08,19.47 19.88,19.06 20.08,18.9 L20.3,17.9 C19.0322905,18.2057675 17.7339965,18.3667962 16.43,18.38 L16.08,19 Z" id="Path" fill="#FFFFFF"></path>
                    <path d="M6.7,42.35 C6.7,42.27 6.7,42.18 6.7,42.11 C6.70990798,42.0202727 6.70990798,41.9297273 6.7,41.84 C6.63827284,41.5763879 6.47229499,41.3490705 6.24,41.21 C6.02842147,41.0524349 5.79626548,40.9245809 5.55,40.83 C4.43,40.34 6.24,43 6.24,43 C6.30584469,43.1613427 6.41270819,43.3026783 6.55,43.41 C6.68,43.49 6.48,43.55 6.55,43.68 C6.6122117,43.7972523 6.64643834,43.9273135 6.65,44.06 C6.65,44.2 6.59,44.23 6.51,44.38 C6.3,44.73 5.82,44.77 5.51,45.02 L5.08,45.34 C4.87517481,45.4657711 4.66124714,45.5760775 4.44,45.67 C4.0967885,45.9060757 3.71408481,46.0788004 3.31,46.18 C3.23,46.18 2.95,46.32 2.86,46.35 C2.76797558,46.3692853 2.67767651,46.3960405 2.59,46.43 C2.48,46.43 2.44,46.43 2.33,46.43 C2.24674821,46.4352134 2.16325179,46.4352134 2.08,46.43 C2.14,46.31 2.02,46.18 1.96,46.08 C1.83628997,45.9075234 1.76667202,45.7021505 1.76,45.49 C1.76,45.25 1.26,44.67 1.21,44.9 C1.09,45.43 1.72,48.18 1.55,48.68 C1.38593238,49.0255375 1.33686831,49.4145455 1.41,49.79 C1.48,50.03 1.75,50.72 2.11,50.43 C2.26,50.31 2.29,49.92 2.33,49.75 C2.47,49.08 1.81,46.75 1.83,46.07 C1.77506234,45.7389306 1.73834043,45.4050951 1.72,45.07 C1.72,44.88 1.18,45.27 1.28,45.45 C1.11,45.21 0.95,45.45 0.81,45.23 C0.7,45.23 0.6,45.36 0.5,45.42 C0.4,45.48 0.18,45.55 0.1,45.73 C0.02,45.91 0.1,46.16 0.26,46.35 C0.550631559,46.7898706 0.885727476,47.1986876 1.26,47.57 C1.89,48.15 2.26,48.95 2.96,49.47 C3.21669996,49.693817 3.50688637,49.876027 3.82,50.01 C4.24,50.16 4.53,49.89 4.95,49.79 C5.37,49.69 5.59,49.7 5.95,49.6 C6.2256144,49.5090169 6.49050751,49.3883061 6.74,49.24 C7.10795474,49.0518785 7.46216869,48.8380135 7.8,48.6 C8.08103895,48.4156471 8.31965177,48.1736255 8.5,47.89 C8.5,47.81 8.5,47.69 8.57,47.59 C8.64,47.49 8.74,47.26 8.81,47.09 C8.93446048,46.7721573 8.96905676,46.4261945 8.91,46.09 C8.91,45.8 8.78,45.52 8.73,45.25 C8.67874617,45.0225639 8.64200539,44.7920989 8.62,44.56 C8.62,44.48 8.69,44.4 8.7,44.31 C8.66476893,43.8829794 8.54223911,43.4677395 8.34,43.09 C8.27369886,42.7778138 8.17655541,42.4729843 8.05,42.18 C7.84,41.8 7.63,41.86 7.29,42.05 C7.16,42.12 7,42.12 6.87,42.2 L6.7,42.35 Z" id="Path" fill="#DCE4CF"></path>
                    <path d="M17.57,4.8 C17.57,4.8 17.57,4.8 17.49,4.74 L17.33,4.74 C17.2790325,4.59228223 17.1892204,4.46101839 17.07,4.36 C16.6034972,4.14897468 16.0891705,4.0661301 15.58,4.12 L15,4.12 C14.9810138,4.11099407 14.9589862,4.11099407 14.94,4.12 L14.15,4.12 C14.15,4.12 14.15,4.12 14.09,4.12 L13.47,4.12 C12.9673323,4.06631515 12.4594911,4.149228 12,4.36 C11.8807796,4.46101839 11.7909675,4.59228223 11.74,4.74 L11.57,4.74 C11.537921,4.75152718 11.5100482,4.7724318 11.49,4.8 L11.49,4.91 L11.49,4.97 L11.49,4.97 C11.49,4.97 11.49,5.02 11.63,5.03 C11.6255043,5.09325355 11.6255043,5.15674645 11.63,5.22 C11.6305833,5.49837735 11.7066124,5.77139093 11.85,6.01 C12.0688145,6.21364201 12.3616578,6.31848711 12.66,6.3 C13.0095443,6.33519742 13.3609568,6.25437256 13.66,6.07 C14.088699,5.72738998 14.3388072,5.2087832 14.34,4.66 C14.3660037,4.65159089 14.3939963,4.65159089 14.42,4.66 C14.5391052,4.63927517 14.6608948,4.63927517 14.78,4.66 L14.78,4.66 L14.78,4.66 C14.7813064,5.20594751 15.0316943,5.72145214 15.46,6.06 C15.744923,6.23388415 16.0770945,6.3143046 16.41,6.29 C16.6997841,6.31124307 16.9844788,6.20539507 17.19,6 C17.3493355,5.76761245 17.4331424,5.49174792 17.43,5.21 C17.4350218,5.14676621 17.4350218,5.08323379 17.43,5.02 C17.53,5.02 17.56,5.02 17.57,4.96 L17.57,4.96 L17.57,4.9 C17.5737152,4.86677019 17.5737152,4.83322981 17.57,4.8 L17.57,4.8 Z M13.54,6 C13.0343352,6.31230991 12.3956648,6.31230991 11.89,6 C11.69,5.73 11.53,4.81 11.99,4.44 C12.6026657,4.20914564 13.2675745,4.15373657 13.91,4.28 C14.0755371,4.34456701 14.1859934,4.50236167 14.19,4.68 C14.1833861,5.19548537 13.9445652,5.68047549 13.54,6 L13.54,6 Z M14.25,4.54 C14.2273456,4.41938837 14.1593549,4.31203466 14.06,4.24 C14.05819,4.21336405 14.05819,4.18663595 14.06,4.16 L14.86,4.16 C14.8645256,4.18982932 14.8645256,4.22017068 14.86,4.25 L14.86,4.25 C14.7746227,4.32516496 14.7180559,4.42769219 14.7,4.54 C14.5511229,4.51404378 14.3988771,4.51404378 14.25,4.54 L14.25,4.54 Z M17.1,6 C16.6056996,6.31418322 15.9743004,6.31418322 15.48,6 C15.0644385,5.67176799 14.8243956,5.16952454 14.83,4.64 C14.8340066,4.46236167 14.9444629,4.30456701 15.11,4.24 C15.749092,4.11349601 16.4108616,4.16893221 17.02,4.4 C17.49,4.77 17.32,5.69 17.1,6 Z" id="Shape" fill="#FFFFFF"></path>
                    <path d="M17.57,4.79 C17.6487169,4.8873307 17.735708,4.97766762 17.83,5.06 C17.83,5.06 17.92,5.18 17.73,5.23 L17.53,4.96 L17.57,4.79 Z" id="Path" fill="#FFFFFF"></path>
                </g>
                <g id="Group">
                    <path d="M8.57,26.24 L8.57,25.24 C8.54215779,25.3118216 8.51877992,25.3852949 8.5,25.46 C8.45,25.56 8.36,25.62 8.33,25.72 C8.27612239,25.9839453 8.27612239,26.2560547 8.33,26.52 C8.35054108,26.80536 8.30962024,27.0918059 8.21,27.36 C8.1506284,27.4761879 8.11012201,27.6010825 8.09,27.73 C8.09,27.89 8.16,28.05 8.09,28.22 C8.02,28.39 7.9,28.38 7.87,28.46 C7.84,28.54 7.87,28.64 7.87,28.71 C7.88481532,28.8362335 7.88481532,28.9637665 7.87,29.09 C7.86947967,29.2872903 7.82507362,29.4819938 7.74,29.66 C7.57,29.99 7.74,30.38 7.63,30.72 C7.62030905,30.8164238 7.62030905,30.9135762 7.63,31.01 C7.63,31.25 7.56,31.49 7.55,31.73 C7.54,31.97 7.46,32.4 7.41,32.73 C7.36,33.06 7.35,33.44 7.27,33.79 C7.19,34.14 7.16,34.34 7.1,34.61 C7.04,34.88 7,34.87 7,35 C7,35.13 7.15,35.39 7.27,35.6 L7.27,35.6 C7.34787483,35.1806915 7.39466882,34.7562031 7.41,34.33 C7.4556069,34.0537047 7.51568961,33.7799946 7.59,33.51 C7.66189619,33.2874148 7.71869185,33.0602322 7.76,32.83 C7.7932827,32.6213187 7.7932827,32.4086813 7.76,32.2 C7.76,32.15 7.68,32.15 7.67,32.07 C7.65551553,32.0176501 7.65551553,31.9623499 7.67,31.91 C7.70882239,31.8358386 7.74224251,31.7589723 7.77,31.68 C7.86414903,31.4596271 7.94104676,31.2322773 8,31 C7.99589041,30.7179179 8.02271732,30.4362353 8.08,30.16 C8.08,30.06 8.19,29.97 8.22,29.88 C8.22621627,29.8067984 8.22621627,29.7332016 8.22,29.66 C8.32596187,29.1481066 8.4027523,28.6306059 8.45,28.11 C8.46153491,27.8489673 8.50519737,27.5903512 8.58,27.34 C8.63826123,27.2093536 8.67862547,27.0714425 8.7,26.93 C8.70884601,26.8535885 8.70884601,26.7764115 8.7,26.7 C8.63267649,26.5544828 8.58880072,26.3992301 8.57,26.24 L8.57,26.24 Z" id="Path"></path>
                    <path d="M22.88,32.17 C22.782925,31.8456878 22.735719,31.5085021 22.74,31.17 C22.6882977,30.8343055 22.7191891,30.4910683 22.83,30.17 C22.9403536,29.9709377 22.9403536,29.7290623 22.83,29.53 C22.7427288,29.3793854 22.675494,29.2180218 22.63,29.05 C22.58,28.83 22.63,28.62 22.56,28.4 C22.49,28.18 22.49,27.91 22.47,27.65 C22.45,27.39 22.47,27.1 22.47,26.82 C22.4949958,26.5706248 22.4949958,26.3193752 22.47,26.07 C22.4183187,25.8958836 22.3548385,25.7254893 22.28,25.56 C22.1898985,25.3136845 22.1491246,25.0520521 22.16,24.79 L22.16,24.79 C22.1371271,24.877146 22.1035375,24.9611199 22.06,25.04 C22.06,25.16 22.06,25.29 22.06,25.4 C21.9456455,25.9927995 21.915348,26.5987502 21.97,27.2 C21.97,27.65 21.97,28.1 22.05,28.54 C22.13,28.98 22.15,29.36 22.23,29.78 C22.2793168,29.9307505 22.3193913,30.0843691 22.35,30.24 C22.3578676,30.3723061 22.3813643,30.5032164 22.42,30.63 C22.51,31.04 22.77,32.63 22.79,32.81 L22.65,33.02 C22.6474115,33.3961522 22.6842798,33.7715388 22.76,34.14 C22.94,34 22.98,33.74 23.22,33.63 C23.200978,33.4869744 23.1674726,33.3462517 23.12,33.21 C22.91,33 23,32.51 22.88,32.17 Z" id="Path"></path>
                    <path d="M6.62,41.26 C6.57151399,41.134363 6.53795077,41.0034665 6.52,40.87 C6.47028256,40.6059222 6.44020021,40.3385235 6.43,40.07 C6.35628685,40.129052 6.26444603,40.160843 6.17,40.16 C6.04,39.94 6.08,40.47 6.09,40.53 C6.09,40.88 6.09,41.21 6.15,41.53 C6.36141,41.7019713 6.49767598,41.9494016 6.53,42.22 C6.63,42.22 6.74,42.32 6.82,42.22 C6.91374774,42.0418168 6.93866364,41.8353708 6.89,41.64 C6.83,41.55 6.7,41.41 6.62,41.26 Z" id="Path"></path>
                    <path d="M26.58,26.46 C26.480348,26.1023882 26.4498025,25.7290541 26.49,25.36 L26.49,25.36 L26.49,25.36 C26.49,25.22 26.39,25.01 26.37,24.85 C26.35,24.69 26.25,24.5 26.21,24.31 C26.17,24.12 26.21,23.96 26.14,23.79 C26.1040268,23.6824667 26.0772637,23.5720689 26.06,23.46 C26.0503733,23.3054913 26.0303278,23.1518086 26,23 C25.9604069,22.8520792 25.9303452,22.7017704 25.91,22.55 C25.9058574,22.2561741 25.8655543,21.963976 25.79,21.68 C25.7167353,21.3986634 25.6731639,21.1104216 25.66,20.82 C25.6287714,20.5277256 25.5820389,20.2373164 25.52,19.95 C25.47,19.73 25.52,19.51 25.44,19.3 C25.36,19.09 25.32,18.93 25.29,18.74 C25.1966893,18.2518115 25.1431801,17.7568513 25.13,17.26 C25.13,17.03 24.88,15.71 24.88,15.71 C24.78,14.47 24.36,14.43 24.36,14.43 C23.9279427,14.1432238 23.4730833,13.8923823 23,13.68 C21.74,13.07 18.71,11.94 18.71,11.94 C18.5473162,11.3988236 18.3082398,10.8836308 18,10.41 L17.93,10.41 C17.8689136,10.6617004 17.7817768,10.9063537 17.67,11.14 L17.92,11.14 C18.38,11.78 18.03,14.85 18.03,14.85 C17.5515422,16.7244013 17.3361448,18.6562467 17.39,20.59 C17.18,23.45 18.46,34 18.46,34 C16.02,35 11.15,34.29 11.15,34.29 C13.47,28.37 14.05,20.29 14.05,20.29 C14.1782096,18.4671041 14.0230334,16.6353504 13.59,14.86 C13.2329823,13.5586113 13.1244211,12.2015964 13.27,10.86 L13.33,10.69 L13.33,10.62 L13.26,10.62 C13.0704211,10.976495 12.9099008,11.3476982 12.78,11.73 C11.8356356,12.2312581 10.8258779,12.5981367 9.78,12.82 C8.76517865,13.1386616 7.77572821,13.5331047 6.82,14 C6.82,14 6.37,13.69 6,16.44 C5.93221307,16.6985328 5.83138219,16.947249 5.7,17.18 C5.52741068,17.8883489 5.42359598,18.611703 5.39,19.34 C5.39,19.34 4.86,22.34 4.72,22.79 L4.72,22.99 C4.73501843,23.1563283 4.73501843,23.3236717 4.72,23.49 C4.72,23.75 4.56,24.01 4.52,24.28 C4.48,24.55 4.4,24.82 4.37,25.1 C4.37,25.2 4.37,25.31 4.37,25.4 C4.37,25.49 4.21,25.79 4.18,25.99 C4.04535256,26.6539685 3.94852994,27.3250494 3.89,28 C3.89,28.54 3.78,29.08 3.72,29.62 C3.72,29.76 3.72,29.91 3.72,30.05 C3.65153967,30.476553 3.61809476,30.9079923 3.62,31.34 C3.62,31.69 3.62,32.03 3.62,32.34 L3.62,33.28 C3.60500689,33.5464559 3.60500689,33.8135441 3.62,34.08 C3.65866236,34.308186 3.6820477,34.5386985 3.69,34.77 L3.69,35.7 C3.69,35.96 3.69,36.22 3.69,36.48 C3.69,36.74 3.69,36.81 3.69,36.97 C3.69,37.13 3.69,37.56 3.69,37.86 C3.69,38.16 3.69,38.59 3.69,38.96 C3.69,39.17 3.58,39.57 3.86,39.63 C3.89134703,39.9686229 3.95496932,40.303477 4.05,40.63 C4.05,40.63 4.14,42.25 4.45,42.31 C4.45,42.31 5.79,43.99 6.3,43.92 C5.83165094,45.5851209 5.53674915,47.2942108 5.42,49.02 C5.3167125,49.2776869 5.26244928,49.5523945 5.26,49.83 C4.95240636,50.2792275 4.90670819,50.858071 5.14,51.35 L5.14,51.89 L4.81,52.28 C4.74937829,52.5281008 4.67254667,52.7719577 4.58,53.01 C4.58,53.01 4.58,54.13 4.85,54.33 L4.85,55.12 C4.85,55.12 4.36,55.59 4.3,57.58 C4.3,57.58 4.05,59.78 3.98,60.09 C3.8171939,60.8808911 3.7168842,61.6833687 3.68,62.49 C3.39521609,63.1884679 3.24916489,63.9357066 3.25,64.69 C3.12361452,65.4044537 3.12361452,66.1355463 3.25,66.85 C3.20621048,67.3824345 3.20621048,67.9175655 3.25,68.45 C3.12690825,68.9052946 2.95943925,69.3474128 2.75,69.77 C2.75,69.77 2.65,70.56 3.18,70.62 C2.7121016,71.4973558 2.2980036,72.4023603 1.94,73.33 L1.94,73.44 C1.88645978,73.5105088 1.81821328,73.5685183 1.74,73.61 C1.74,73.61 0.31,74.15 0.32,74.77 L0.11,74.77 L0,75.4 C0,75.4 0,75.7 3.85,75.82 C3.85,75.82 5.03,75.9 5.28,75.07 L5.53,74.89 L6.53,75.04 L8.13,74.73 L8.13,74.25 C8.13,74.25 8.34,74.42 8.29,73.75 C8.40084692,73.5095156 8.43907741,73.2419022 8.4,72.98 C8.4,72.98 9.24,72.22 9.4,69.26 C9.4,69.26 9.58,64.82 9.6,64.54 C9.6,64.54 9.88,60.54 9.83,60.27 C9.95571432,59.3107681 9.95571432,58.3392319 9.83,57.38 C9.83,57.38 10.02,57.52 10.16,54.97 C10.16,54.97 10.69,54.97 10.78,52.6 C10.5946801,52.2709663 10.5946801,51.8690337 10.78,51.54 C10.78,51.54 10.88,51.46 10.88,51.01 C10.8838205,50.8252017 10.9770122,50.6537291 11.13,50.55 C11.3332762,50.228113 11.4661838,49.866877 11.52,49.49 C11.8794884,48.464158 12.303673,47.462147 12.79,46.49 C12.79,46.49 13.56,45.31 13.88,44.64 C14.1415448,44.0999388 14.4564451,43.5873883 14.82,43.11 L15.01,43.11 C14.9320477,43.4747392 14.8951515,43.8470554 14.9,44.22 C14.799059,44.7269744 14.7788096,45.2467087 14.84,45.76 C14.84,45.76 15.15,48.87 15.1,49.44 C15.1,49.44 15.1,52.01 14.98,52.69 C14.9158792,53.1248815 14.9226334,53.5672787 15,54 C14.9605313,54.3337807 14.9774333,54.671821 15.05,55 C14.9911924,55.6451775 14.8774466,56.2841614 14.71,56.91 C14.71,56.91 14.65,57.91 14.71,58.76 C14.77,59.61 14.65,58.76 14.59,60.16 C14.4666633,60.639649 14.419421,61.1356924 14.45,61.63 C14.45,61.63 14.14,64.16 14.06,65 C13.8964733,65.6122581 13.7893594,66.2382052 13.74,66.87 C13.5636363,67.5959617 13.5095614,68.3462508 13.58,69.09 C13.4381221,69.6898631 13.261151,70.2808797 13.05,70.86 C13.05,70.86 12.38,71.66 13.44,72.6 C13.6165202,72.8204146 13.7581689,73.0666136 13.86,73.33 C13.86,73.5 13.86,74.03 14.08,74.03 L14.08,74.21 L15.22,74.59 L16.22,74.59 L16.22,74.95 C16.22,74.95 16.88,75.77 20.47,75.14 L20.88,75.03 L20.88,74.61 L20.61,74.61 C20.56,74.61 20.92,74.25 19.77,73.43 L19.38,72.98 C19.38,72.98 19.59,72.98 19.49,72.61 C19.4297354,72.3602507 19.4297354,72.0997493 19.49,71.85 C19.49,71.85 19.67,71.43 18.76,70.22 C18.76,70.22 18.62,70.22 18.97,69.69 C19.1414654,69.0366253 19.235445,68.3653422 19.25,67.69 C19.250908,66.9611166 19.297667,66.2330121 19.39,65.51 C19.4294104,64.9977524 19.5096655,64.4894701 19.63,63.99 C19.63,63.99 19.63,62.79 19.63,62.06 C19.63,61.33 19.87,59.53 19.87,59.53 L19.87,58.75 C19.87,58.75 20.11,57.59 19.87,57.28 C19.6970636,56.9900333 19.7423168,56.6197798 19.98,56.38 C20.3364752,55.744882 20.522507,55.0283153 20.52,54.3 C20.52,54.3 20.18,54.19 20.6,53.3 C21.02,52.41 20.78,52.85 20.78,52.49 C20.78,52.13 21,52 21,52 C21,52 21.17,51.94 21.2,50.11 L21.62,47.75 C21.62,47.75 21.94,45.34 21.9,44.89 C21.8798408,44.5890322 21.9420696,44.2882596 22.08,44.02 C22.08,44.02 22.58,44.3 23.59,43.48 C24.6,42.66 24.59,42.89 24.83,42.16 C24.973508,41.7766694 25.0970077,41.3861433 25.2,40.99 L25.2,40.35 C25.3008938,40.3611859 25.402069,40.3315383 25.4809687,40.2676672 C25.5598683,40.203796 25.6099327,40.1110116 25.62,40.01 C25.7356722,39.3496688 25.7925617,38.6803811 25.79,38.01 C25.8299019,37.4371623 25.9168618,36.868578 26.05,36.31 C26.1623008,35.649633 26.1958687,34.9782755 26.15,34.31 C26.04,33.64 26.35,33.97 26.4,33.31 C26.4,33.31 26.49,30.88 26.46,30.6 C26.43,30.32 26.46,30.27 26.46,30.09 C26.4235353,29.8981451 26.3968342,29.7045626 26.38,29.51 C26.38,29.35 26.48,29.22 26.48,29.07 C26.48,28.92 26.43,28.94 26.42,28.88 C26.41,28.82 26.47,28.58 26.5,28.4 C26.5025033,28.1747182 26.4790148,27.9498993 26.43,27.73 C26.48,27.26 26.62,26.87 26.58,26.46 Z M6.82,42.28 C6.74,42.34 6.63,42.28 6.53,42.28 C6.49767598,42.0094016 6.36141,41.7619713 6.15,41.59 C6.15,41.25 6.15,40.92 6.09,40.59 C6.09,40.53 6.09,40 6.17,40.22 C6.26444603,40.220843 6.35628685,40.189052 6.43,40.13 C6.44020021,40.3985235 6.47028256,40.6659222 6.52,40.93 C6.53795077,41.0634665 6.57151399,41.194363 6.62,41.32 C6.7,41.47 6.83,41.61 6.89,41.76 C6.92424819,41.9363218 6.89965536,42.1190114 6.82,42.28 L6.82,42.28 Z M8.56,27.35 C8.48519737,27.6003512 8.44153491,27.8589673 8.43,28.12 C8.3827523,28.6406059 8.30596187,29.1581066 8.2,29.67 C8.20621627,29.7432016 8.20621627,29.8167984 8.2,29.89 C8.2,29.98 8.09,30.07 8.06,30.17 C8.01014843,30.4436961 7.99003156,30.7219795 8,31 C7.98211597,31.2187631 7.94869836,31.4359776 7.9,31.65 C7.87224251,31.7289723 7.83882239,31.8058386 7.8,31.88 C7.78551553,31.9323499 7.78551553,31.9876501 7.8,32.04 C7.8,32.12 7.87,32.12 7.89,32.17 C7.9232827,32.3786813 7.9232827,32.5913187 7.89,32.8 C7.84869185,33.0302322 7.79189619,33.2574148 7.72,33.48 C7.64568961,33.75 7.5856069,34.0237047 7.54,34.3 C7.52466882,34.7262031 7.47787483,35.1506915 7.4,35.57 L7.4,35.57 C7.28,35.36 7.09,35.23 7.13,34.97 C7.17,34.71 7.23,34.74 7.26,34.62 C7.29,34.5 7.37,34.07 7.43,33.8 C7.49,33.53 7.51,33.09 7.57,32.74 C7.63,32.39 7.69,32.07 7.71,31.74 C7.73,31.41 7.78,31.26 7.79,31.02 C7.78030905,30.9235762 7.78030905,30.8264238 7.79,30.73 C7.88,30.39 7.73,30 7.9,29.67 C7.98507362,29.4919938 8.02947967,29.2972903 8.03,29.1 C8.04481532,28.9737665 8.04481532,28.8462335 8.03,28.72 C8.03,28.65 7.95,28.55 8.03,28.47 C8.11,28.39 8.21,28.33 8.25,28.23 C8.29,28.13 8.25,27.9 8.25,27.74 C8.27012201,27.6110825 8.3106284,27.4861879 8.37,27.37 C8.46962024,27.1018059 8.51054108,26.81536 8.49,26.53 C8.43612239,26.2660547 8.43612239,25.9939453 8.49,25.73 C8.49,25.63 8.61,25.57 8.66,25.47 C8.67877992,25.3952949 8.70215779,25.3218216 8.73,25.25 L8.73,26.25 C8.72530886,26.4088398 8.74555478,26.5674329 8.79,26.72 C8.79884601,26.7964115 8.79884601,26.8735885 8.79,26.95 C8.73319044,27.0938074 8.65570812,27.2285593 8.56,27.35 Z M22.71,34.19 C22.6342798,33.8215388 22.5974115,33.4461522 22.6,33.07 L22.74,32.86 C22.74,32.69 22.46,31.09 22.37,30.68 C22.3313643,30.5532164 22.3078676,30.4223061 22.3,30.29 C22.2693913,30.1343691 22.2293168,29.9807505 22.18,29.83 C22.1,29.41 22.06,29.02 22,28.59 C21.94,28.16 22,27.7 21.92,27.25 C21.865348,26.6487502 21.8956455,26.0427995 22.01,25.45 C22.01,25.34 22.01,25.21 22.01,25.09 C22.0535375,25.0111199 22.0871271,24.927146 22.11,24.84 L22.11,24.84 C22.0991246,25.1020521 22.1398985,25.3636845 22.23,25.61 C22.3048385,25.7754893 22.3683187,25.9458836 22.42,26.12 C22.4449958,26.3693752 22.4449958,26.6206248 22.42,26.87 C22.42,27.15 22.42,27.42 22.42,27.7 C22.42,27.98 22.48,28.2 22.51,28.45 C22.54,28.7 22.51,28.88 22.58,29.1 C22.625494,29.2680218 22.6927288,29.4293854 22.78,29.58 C22.8903536,29.7790623 22.8903536,30.0209377 22.78,30.22 C22.6691891,30.5410683 22.6382977,30.8843055 22.69,31.22 C22.685719,31.5585021 22.732925,31.8956878 22.83,32.22 C22.94,32.56 22.83,33 23.02,33.31 C23.0674726,33.4462517 23.100978,33.5869744 23.12,33.73 C22.93,33.79 22.89,34.05 22.71,34.19 Z" id="Shape" fill="#C2C2C2" fill-rule="nonzero"></path>
                    <path d="M17.28,11.91 C17.04,12.17 16.57,12.57 16.28,12.84 C15.99,13.11 15.67,13.32 15.67,13.32 C15.2744337,13.0969782 14.9110931,12.8211085 14.59,12.5 C14.0671715,12.0943205 13.6630603,11.5555056 13.42,10.94 C13.3890295,10.8648987 13.3623204,10.78811 13.34,10.71 L13.28,10.88 C13.1344211,12.2215964 13.2429823,13.5786113 13.6,14.88 C14.0330334,16.6553504 14.1882096,18.4871041 14.06,20.31 C14.06,20.31 13.48,28.37 11.16,34.31 C11.16,34.31 16.03,35 18.47,34.02 C18.47,34.02 17.19,23.52 17.36,20.68 C17.2995963,18.7228945 17.5150443,16.7670314 18,14.87 C18,14.87 18.35,11.8 17.89,11.16 L17.82,11.16 C17.82,11.16 17.82,11.16 17.82,11.16 C17.7033955,11.450043 17.5180829,11.7074215 17.28,11.91 L17.28,11.91 Z M17.44,26.72 C17.44,27.31 17.5,27.9 17.52,28.5 C17.5408537,28.8330072 17.5408537,29.1669928 17.52,29.5 C17.5246785,29.5197264 17.5246785,29.5402736 17.52,29.56 C17.52,29.56 16.39,31.27 15.66,31.5 C15.66,31.5 14.08,29.81 13.83,29.58 C13.83,29.58 13.99,25.89 14.03,25.58 C14.03,25.58 14.31,20.99 14.31,20.52 C14.3488492,19.2562607 14.5163813,17.99977 14.81,16.77 L15.04,16.11 C15.091061,15.936976 15.1511432,15.7667431 15.22,15.6 C15.22,15.5 15.31,15.21 15.43,15.17 C15.4199242,14.7789494 15.3525402,14.3914916 15.23,14.02 C14.8925173,14.0190257 14.5565145,13.9753453 14.23,13.89 C14.5173967,13.6022127 14.8567128,13.3714778 15.23,13.21 C15.23,13.21 15.23,13.49 15.23,13.5 C15.485337,13.5354159 15.7452472,13.4862437 15.97,13.36 C15.97,13.36 16.58,13.53 16.71,13.75 C16.4173107,14.1957722 16.2167116,14.69557 16.12,15.22 C16.1870141,15.9252634 16.3243636,16.6220612 16.53,17.3 C16.8672305,18.3481657 17.0524481,19.4392654 17.08,20.54 C17.08,21.23 17.08,21.92 17.16,22.61 C17.24,23.3 17.24,23.93 17.27,24.61 C17.3,25.29 17.41,26 17.44,26.72 Z" id="Shape" fill="#FFFFFF" fill-rule="nonzero"></path>
                    <path d="M18.77,5.54 L18.67,5.61 C18.46,5.87 18.46,5.61 18.46,5.61 C18.5636585,5.15363075 18.6206184,4.68789953 18.63,4.22 C18.6861772,3.27175743 18.2227409,2.36786508 17.42,1.86 C16.7221252,1.35403849 15.8491958,1.1520383 15,1.3 C14.4716781,1.37128102 13.9751487,1.59350398 13.57,1.94 L13.27,2.12 C12.3353898,2.85251418 11.9396131,4.07942223 12.27,5.22 C12.3689748,5.49365864 12.4295509,5.77971239 12.45,6.07 C12.3779421,6.02528853 12.3273467,5.95300937 12.31,5.87 C11.81,5.87 11.94,6.58 11.97,6.87 C12.0185007,7.08435909 12.0994325,7.29006063 12.21,7.48 C12.3135321,7.82702475 12.5965916,8.09095854 12.95,8.17 C12.9409495,8.28982935 12.9409495,8.41017065 12.95,8.53 C13.0648982,8.88261236 13.1518339,9.24372991 13.21,9.61 C13.21,9.87 13.26,10.28 13.21,10.54 L13.21,10.69 C13.2323204,10.76811 13.2590295,10.8448987 13.29,10.92 C13.5330603,11.5355056 13.9371715,12.0743205 14.46,12.48 C14.7810931,12.8011085 15.1444337,13.0769782 15.54,13.3 C15.54,13.3 15.9,13.04 16.15,12.82 C16.4,12.6 16.92,12.15 17.15,11.89 C17.3769487,11.6936879 17.5549959,11.447161 17.67,11.17 C17.67,11.17 17.67,11.17 17.67,11.17 C17.7174831,10.9294006 17.7442478,10.6851727 17.75,10.44 C17.75,10.14 17.75,9.83 17.75,9.53 C17.75,8.98 17.89,8.45 17.91,7.9 C18.28,7.9 18.5,7.57 18.66,7.24 C18.795517,6.9234516 18.8701533,6.58419588 18.88,6.24 C19.05,6.09 19.09,5.47 18.77,5.54 Z" id="Path" fill="#C2C2C2" fill-rule="nonzero"></path>
                    <path d="M17.22,22.63 C17.22,21.94 17.16,21.25 17.14,20.56 C17.1124481,19.4592654 16.9272305,18.3681657 16.59,17.32 C16.3843636,16.6420612 16.2470141,15.9452634 16.18,15.24 C16.2767116,14.71557 16.4773107,14.2157722 16.77,13.77 C16.64,13.55 16.03,13.38 16.03,13.38 C15.8052472,13.5062437 15.545337,13.5554159 15.29,13.52 C15.29,13.52 15.29,13.23 15.29,13.23 C14.9167128,13.3914778 14.5773967,13.6222127 14.29,13.91 C14.6165145,13.9953453 14.9525173,14.0390257 15.29,14.04 C15.4125402,14.4114916 15.4799242,14.7989494 15.49,15.19 C15.37,15.19 15.31,15.52 15.28,15.62 C15.2111432,15.7867431 15.151061,15.956976 15.1,16.13 L14.87,16.79 C14.5763813,18.01977 14.4088492,19.2762607 14.37,20.54 C14.3,21 14,25.6 14,25.6 C14,25.87 13.8,29.6 13.8,29.6 C14.05,29.83 15.63,31.52 15.63,31.52 C16.36,31.29 17.49,29.58 17.49,29.58 C17.4946785,29.5602736 17.4946785,29.5397264 17.49,29.52 C17.5108537,29.1869928 17.5108537,28.8530072 17.49,28.52 C17.49,27.92 17.44,27.33 17.41,26.74 C17.38,26.15 17.34,25.33 17.3,24.63 C17.26,23.93 17.26,23.29 17.22,22.63 Z" id="Path" fill="#DCE4CF" fill-rule="nonzero"></path>
                    <path d="M10,19.87 C10,19.87 11.9,20.3 12.33,19.87 L12.24,20.65 C12.24,20.65 10.34,20.65 9.91,20.56 L10,19.87 Z" id="Path" fill="#FFFFFF" fill-rule="nonzero"></path>
                    <path d="M12.21,7 L11.76,7 C11.38,7 11.16,7 11.13,6.55 C11.1388447,6.23285687 11.1824386,5.91763976 11.26,5.61 C11.2400269,5.18075486 11.3080893,4.75196199 11.46,4.35 C11.46,4.28 11.6,4.22 11.63,4.15 C11.7176339,3.93690717 11.7846078,3.71589333 11.83,3.49 C11.91,3.22 11.95,2.93 12.02,2.65 C12.1095069,2.30708457 12.2971855,1.99776248 12.56,1.76 C12.69,1.63 12.86,1.53 13,1.4 C13.14,1.27 13.12,1.22 13.19,1.16 C13.4739925,0.985302112 13.7902963,0.869664162 14.12,0.82 C14.53,0.74 14.94,0.73 15.35,0.69 C15.6392181,0.659883302 15.9307819,0.659883302 16.22,0.69 C16.56,0.69 16.84,0.87 17.22,0.93 C17.6,0.99 18.03,0.93 18.34,1.22 C18.5685301,1.47139013 18.7543248,1.7585273 18.89,2.07 C19.26,2.83 19.3,3.72 19.61,4.51 C19.7929737,5.02215983 19.9236396,5.55152422 20,6.09 C20,6.33 20.09,6.55 19.88,6.72 C19.67,6.89 19.58,6.81 19.39,6.83 C19.2,6.85 19.15,6.83 19.02,6.83 C18.89,6.83 18.71,6.67 18.69,6.52 C18.69,6.73 18.55,6.92 18.48,7.1 C18.4355077,7.27051077 18.405402,7.44445437 18.39,7.62 C18.28,8.28 18.72,9.01 18.49,9.62 C18.43,9.79 18.36,10.17 18.19,10.27 C17.79,10.51 17.62,9.79 17.58,9.55 C17.552266,9.16588072 17.6505702,8.78319647 17.86,8.46 C18.1,7.99 17.81,7.39 18,6.88 C18.0875591,6.65780519 18.1877218,6.440786 18.3,6.23 C18.46,5.88 18.5,5.01 17.95,5.01 C17.85,5.01 17.79,5.01 17.68,5.01 C17.5168273,5.02024451 17.3531727,5.02024451 17.19,5.01 C16.7805704,4.92966243 16.3594296,4.92966243 15.95,5.01 C15.7137679,4.98971785 15.4762321,4.98971785 15.24,5.01 L14.71,5.12 C14.32,5.2 13.86,5.03 13.52,5.27 C13.39,5.36 13.32,5.37 13.26,5.49 C13.2,5.61 12.62,5.78 12.63,5.88 C12.64,5.98 12.72,6.08 12.8,6.2 C12.8794313,6.35429829 12.9173403,6.52661195 12.91,6.7 C12.9294442,7.03658101 12.9762656,7.37101962 13.05,7.7 C13.1,7.93 13.28,8.7 13.11,8.83 C12.9684964,9.83959874 13.0713779,10.8684138 13.41,11.83 C13.55,12.08 13.83,12.75 13.99,12.97 C13.86,12.97 13.53,12.68 13.4,12.65 C13.3082301,12.3681148 13.1805113,12.0992331 13.02,11.85 C12.93,11.64 12.85,11.38 12.76,11.16 C12.6783641,10.9394588 12.6409855,10.7049927 12.65,10.47 C12.6536317,10.1581892 12.714649,9.84971249 12.83,9.56 C12.9733177,9.11495696 13.0176852,8.6439781 12.96,8.18 C12.9368597,7.94514624 12.876083,7.7155454 12.78,7.5 C12.67,7.2 12.5,7.35 12.37,7.06 C12.35,7 12.29,7 12.21,7 Z" id="Path" fill="#DCE4CF" fill-rule="nonzero"></path>
                    <path d="M10.44,20 C10.4340726,20.0229569 10.4340726,20.0470431 10.44,20.07 C10.44,20.07 10.44,20.16 10.44,20.2 C10.3384258,20.234844 10.2507681,20.3014638 10.19,20.39 C10.0350067,20.77763 9.96016753,21.1926473 9.97,21.61 C9.97,21.74 9.97,21.92 9.97,22.13 C9.97,22.13 9.97,22.24 9.97,22.41 C9.97,22.58 9.97,22.77 9.97,22.79 C9.97,22.98 9.97,23.16 9.97,23.3 C9.91208677,23.7117316 9.94277107,24.1310837 10.06,24.53 C10.1120797,24.6303905 10.1919155,24.7136975 10.29,24.77 L10.29,25 C10.29,25 10.29,25.07 10.29,25.07 L10.37,25.07 L10.37,25.07 L10.37,25.07 C10.37,25.07 10.37,25.07 10.37,24.96 L10.5,24.96 C10.6810357,24.9733126 10.8611332,24.9238741 11.01,24.82 C11.1577055,24.6360646 11.2356299,24.4058335 11.23,24.17 C11.2593849,23.8991848 11.225143,23.6252492 11.13,23.37 C10.9611247,23.0237875 10.6314016,22.7839889 10.25,22.73 C10.2482826,22.7100369 10.2482826,22.6899631 10.25,22.67 C10.2420929,22.5701563 10.2420929,22.4698437 10.25,22.37 L10.25,22.37 L10.25,22.37 C10.6256638,22.3979374 10.9851528,22.2123947 11.18,21.89 C11.3073337,21.6538796 11.3694642,21.3880991 11.36,21.12 C11.3911986,20.8904247 11.3417138,20.6571393 11.22,20.46 C11.0862868,20.322677 10.9100863,20.2345768 10.72,20.21 L10.6,20.21 C10.6,20.13 10.6,20.1 10.6,20.09 L10.6,20.09 C10.6,20.09 10.6,20.09 10.6,20.09 L10.44,20 Z M11,23.37 C11.1656569,23.8163576 11.1291631,24.3126733 10.9,24.73 C10.5739585,24.9555468 10.1269284,24.8750814 9.9,24.55 C9.7802721,24.0301378 9.7802721,23.4898622 9.9,22.97 C9.92423956,22.846191 10.0338623,22.7576495 10.16,22.76 C10.5250673,22.8083801 10.8410227,23.0378239 11,23.37 L11,23.37 Z M10.1,22.7 C10.0133116,22.7147691 9.9369747,22.7656603 9.89,22.84 L9.89,22.84 C9.89,22.62 9.89,22.39 9.89,22.17 L10,22.17 C10.0447263,22.2383721 10.1068557,22.2935982 10.18,22.33 C10.1513593,22.4511947 10.1379226,22.5754844 10.14,22.7 L10.1,22.7 Z M11.1,20.43 C11.3045139,20.8532566 11.3045139,21.3467434 11.1,21.77 C10.9052712,22.074818 10.5611149,22.25072 10.2,22.23 C10.0976445,22.1936639 10.0217711,22.1064095 10,22 C9.94482224,21.4690404 10.0097576,20.9324692 10.19,20.43 C10.42,20 11,20.23 11.16,20.43 L11.1,20.43 Z" id="Shape" fill="#FFFFFF" fill-rule="nonzero"></path>
                    <path d="M10.44,20 C10.5049058,19.9379175 10.5650738,19.8710641 10.62,19.8 C10.62,19.8 10.7,19.73 10.73,19.89 L10.55,20.04 L10.44,20 Z" id="Path" fill="#FFFFFF" fill-rule="nonzero"></path>
                    <polygon id="Path" fill="#FFFFFF" fill-rule="nonzero" points="10.67 19.78 11.19 20.18 10.86 20.19 10.69 19.91"></polygon>
                </g>
            </g>
        </g>
    </g>
</svg>