<?xml version="1.0" encoding="UTF-8"?>
<svg width="1060px" height="219px" viewBox="0 0 1060 219" version="1.1" xmlns="http://www.w3.org/2000/svg" xmlns:xlink="http://www.w3.org/1999/xlink">
    <title>Group</title>
    <g id="Page-1" stroke="none" stroke-width="1" fill="none" fill-rule="evenodd">
        <g id="Group" fill-rule="nonzero">
            <path d="M35.235186,146.442495 C35.2914092,143.782088 34.8100401,141.137348 33.8192973,138.663313 C32.4499272,135.607586 30.6199341,132.774881 28.3917236,130.261797 C25.0885878,126.43622 21.5135624,122.848682 17.6938974,119.526527 C14.0480663,116.34292 10.6311574,112.911758 7.468034,109.258007 C4.70043544,106.488564 2.64963391,103.099412 1.48983696,99.378446 C0.499191954,95.0935763 0.0500173042,90.7036939 0.152608677,86.3094208 L0.152608677,71.9179347 C-0.636857814,64.4046939 1.65888774,56.8927764 6.52410815,51.0697278 C11.9689342,46.717787 18.8964509,44.6012135 25.874588,45.1575497 C32.8903207,44.3476291 39.9040085,46.6882512 44.9890865,51.5364787 C48.9699159,57.5698756 50.8227551,64.7352929 50.2593391,71.9179347 L50.2593391,94.6331452 L35.8644699,94.6331452 L35.8644699,71.9179347 C35.9285708,69.0534246 34.8880043,66.2721402 32.9540319,64.138753 C30.9223297,62.0079727 28.0451288,60.8698019 25.0879832,61.0270803 C18.5591627,61.0270803 15.3340827,64.8388793 15.3340827,72.3068938 L15.3340827,88.7209671 C15.2012016,91.3724131 15.6298809,94.022071 16.5926505,96.5001488 C17.8773694,99.0611958 19.6081125,101.378479 21.7055822,103.345829 C24.9948654,106.816998 28.5163006,110.065642 32.2460875,113.069806 C35.7541602,115.823861 38.9934148,118.89712 41.9213275,122.24924 C45.0668922,125.675595 47.4754591,129.698475 49.0007713,134.073596 C50.3115498,138.652812 50.9473843,143.395108 50.888623,148.153915 L50.888623,163.712278 C51.5503456,170.71374 49.2428057,177.672605 44.5171235,182.926857 C39.2405918,187.256025 32.4770023,189.402046 25.6386066,188.916827 C18.6558211,189.472161 11.7402024,187.229785 6.44544767,182.693482 C1.7140964,177.198951 -0.557161099,170.039267 0.152608677,162.856568 L0.152608677,140.374733 L14.2328359,140.374733 L14.2328359,162.623193 C14.0741883,165.656536 15.1507226,168.626338 17.2219344,170.869126 C19.3019743,172.920149 22.1530572,174.019792 25.0879832,173.903006 C31.7741246,173.903006 35.1565255,170.168999 35.1565255,162.623193 L35.235186,146.442495 Z" id="Path" fill="#333333"></path>
            <path d="M133.350259,187 L133.350259,70.7217859 C133.350259,63.7949043 130.696831,60.3703786 125.546058,60.3703786 C123.419228,60.3505731 121.351092,61.0655804 119.692907,62.393962 C117.614102,64.0883678 116.047223,66.3245376 115.16647,68.8538628 L115.16647,187 L99.5580667,187 L99.5580667,70.7217859 C99.5580667,63.7949043 96.9046382,60.3703786 91.7538651,60.3703786 C89.702968,60.3788447 87.7179847,61.0936981 86.13484,62.393962 C84.0560354,64.0883678 82.4891566,66.3245376 81.6084031,68.8538628 L81.6084031,187 L66,187 L66,47.2949168 L78.7208485,47.2949168 C79.1902893,50.7254878 79.4249581,54.1839558 79.4232267,57.6463241 C81.2272028,53.969811 83.9066683,50.789904 87.2274282,48.3845386 C90.3178648,46.1705746 94.0362018,44.9981159 97.8411423,45.037843 C105.271864,44.5870405 111.828061,49.84472 112.981293,57.1793433 C114.777874,53.6040865 117.465125,50.5489377 120.785495,48.3067085 C124.00477,46.1246778 127.819338,44.9834145 131.711377,45.037843 C136.830586,44.6644886 141.753514,47.0746375 144.58831,51.3420835 C147.763428,57.1247654 149.275788,63.6695114 148.958663,70.2548051 L148.958663,187 L133.350259,187 Z" id="Path" fill="#333333"></path>
            <path d="M200.027144,186.938188 C199.284266,184.22881 198.966553,181.42234 199.085154,178.617251 C196.043487,185.053039 189.45807,189.107605 182.286328,188.960098 C176.830155,189.30334 171.469684,187.420822 167.449981,183.749791 C163.425769,179.079252 161.498047,172.985026 162.112036,166.87462 L162.112036,146.11116 C161.894296,140.31742 162.800321,134.536078 164.781009,129.080457 C166.595263,124.740154 169.263791,120.801196 172.630927,117.493358 C176.042227,114.354234 179.904519,111.733545 184.091809,109.716781 C188.487764,107.53934 193.197715,105.361899 198.221663,103.262223 L198.221663,72.7780423 C198.479989,69.6356708 197.768213,66.489724 196.180684,63.7572133 C194.271174,61.4550931 191.322002,60.25723 188.330765,60.5688169 C185.341598,60.2714372 182.39895,61.4666506 180.480846,63.7572133 C178.906153,66.4968749 178.169755,69.6310988 178.361368,72.7780423 L178.361368,102.017971 L163.917517,102.017971 L163.917517,72.544745 C163.380279,65.2156844 165.434013,57.929812 169.726457,51.9368168 C174.564391,46.9862851 181.403833,44.4704722 188.330765,45.0934293 C204.894094,45.0934293 213.136509,54.192024 213.136509,72.544745 L213.136509,170.607377 C213.136509,173.951305 213.136509,176.98417 213.136509,179.861503 C213.186955,182.140256 213.47634,184.407644 214,186.627125 L200.027144,186.938188 Z M198.221663,115.782511 C194.343224,117.135162 190.651167,118.963944 187.231777,121.226115 C184.62821,122.941641 182.43192,125.197012 180.794843,127.836205 C179.330928,130.491651 178.372974,133.391386 177.968872,136.390439 C177.536231,140.081582 177.326527,143.795029 177.340879,147.510944 L177.340879,162.053142 C177.340879,169.829719 180.873342,173.562476 188.016768,173.562476 C190.248063,173.557153 192.419849,172.849067 194.218204,171.540566 C196.321501,169.828015 197.740707,167.429637 198.221663,164.774944 L198.221663,115.782511 Z" id="Shape" fill="#333333"></path>
            <polygon id="Path" fill="#333333" points="229 187 229 1 245 1 245 187"></polygon>
            <polygon id="Path" fill="#333333" points="262 187 262 1 278 1 278 187"></polygon>
            <path d="M359.90962,186.939516 C359.246795,184.217204 358.957151,181.418432 359.048542,178.619098 C355.984349,185.027034 349.437309,189.069013 342.296646,188.9613 C336.833006,189.298735 331.465515,187.418536 327.423467,183.751318 C323.44247,179.063567 321.52447,172.983471 322.100435,166.877199 L322.100435,146.115033 C321.933395,140.311601 322.890086,134.530317 324.918511,129.085391 C326.702871,124.732192 329.367098,120.788812 332.7465,117.499014 C336.130942,114.338627 339.98589,111.715756 344.175363,109.722922 C348.559037,107.545616 353.17755,105.36831 358.187463,103.268766 L358.187463,72.7864846 C358.378541,69.6397373 357.6442,66.5057087 356.073906,63.7662178 C354.144643,61.4982358 351.222641,60.3081577 348.245917,60.5780201 C345.265101,60.2806589 342.330674,61.4757978 340.417929,63.7662178 C338.87906,66.5154806 338.172313,69.6477574 338.382652,72.7864846 L338.382652,102.024591 L323.900873,102.024591 L323.900873,72.5532019 C323.365135,65.224598 325.413132,57.9391797 329.693584,51.9465579 C334.560042,46.9614135 341.443629,44.4436737 348.402477,45.1035968 C364.841253,45.1035968 373.060641,54.2016246 373.060641,72.5532019 L373.060641,170.609723 C373.060641,173.953442 373.060641,176.986118 373.060641,179.863272 C373.130222,182.145145 373.44513,184.413093 374,186.628473 L359.90962,186.939516 Z M358.109183,115.788274 C354.241579,117.140841 350.559836,118.969508 347.149999,121.231538 C344.55674,122.925673 342.387886,125.186542 340.809328,127.841216 C339.28052,130.466368 338.320657,133.379836 337.991252,136.394918 C337.492488,140.080356 337.257059,143.796253 337.286733,147.514729 L337.286733,162.056022 C337.286733,169.832114 340.809328,173.564638 347.932798,173.564638 C350.180368,173.549395 352.368037,172.843117 354.195189,171.542854 C356.268802,169.822389 357.656626,167.423585 358.109183,164.777654 L358.109183,115.788274 Z" id="Shape" fill="#89A45E"></path>
            <path d="M390,187 L390,47.4202039 L402.951542,47.4202039 C403.407439,50.7702974 403.63924,54.1475464 403.645374,57.5290471 C405.131446,54.0009635 407.560274,50.9588201 410.660793,48.7421296 C413.560136,46.8849159 416.940837,45.9376974 420.374449,46.0205179 C421.971064,45.9121843 423.56751,46.2342394 425,46.9536419 L425,64.294196 C424.100411,63.6096596 423.035766,63.1801125 421.9163,63.0500307 C420.672497,62.786866 419.408773,62.6307839 418.138767,62.5834687 C415.702461,62.6139661 413.304402,63.198739 411.123348,64.294196 C408.49783,65.7730733 406.476652,68.1423579 405.418502,70.9815845 L405.418502,187 L390,187 Z" id="Path" fill="#89A45E"></path>
            <path d="M504.479669,187 L504.479669,70.7217859 C504.479669,63.7949043 501.821142,60.3703786 496.660472,60.3703786 C494.529556,60.3505731 492.457446,61.0655804 490.796075,62.393962 C488.687955,64.064844 487.112488,66.3089579 486.26094,68.8538628 L486.26094,187 L470.622547,187 L470.622547,70.7217859 C470.622547,63.7949043 467.96402,60.3703786 462.80335,60.3703786 C460.727145,60.3921066 458.717891,61.1044196 457.095336,62.393962 C455.03824,64.095693 453.495447,66.3318199 452.638394,68.8538628 L452.638394,187 L437,187 L437,47.2949168 L450.136251,47.2949168 C450.580688,50.7272423 450.789684,54.185719 450.761787,57.6463241 C452.549997,53.9573898 455.238238,50.7731868 458.580983,48.3845386 C461.715375,46.1284681 465.504372,44.9533021 469.371475,45.037843 C476.816475,44.5870405 483.385269,49.84472 484.540717,57.1793433 C486.357929,53.6156245 489.046895,50.5643879 492.359914,48.3067085 C495.620266,46.136616 499.463066,44.9972492 503.384982,45.037843 C508.514027,44.6644886 513.446414,47.0746375 516.286657,51.3420835 C519.164003,57.2124561 520.406136,63.7437904 519.883487,70.2548051 L519.883487,187 L504.479669,187 Z" id="Path" fill="#89A45E"></path>
            <path d="M529.800824,202.46073 C532.341066,203.221244 534.97785,203.614884 537.630495,203.629608 C540.478315,203.713445 543.147123,202.251074 544.598901,199.811274 C546.242118,196.531376 547.326916,193.002764 547.809066,189.3693 L548.748626,183.758687 L528,47 L544.285714,47 C545.068681,52.2209869 545.851648,58.1433004 546.634615,64.533165 C547.417582,70.9230296 548.278846,77.7025201 549.061813,84.6378609 C549.84478,91.5732017 550.627747,98.4306174 551.410714,105.365958 C552.193681,112.301299 552.976648,118.769089 553.603022,124.769328 C554.229396,130.769566 554.934066,136.224329 554.934066,140.977765 C554.934066,145.7312 555.873626,149.471609 556.186813,152.04314 C556.186813,149.471609 556.891484,145.809126 557.43956,140.977765 C557.987637,136.146403 558.614011,130.769566 559.396978,124.769328 C560.179945,118.769089 560.962912,112.301299 561.745879,105.365958 L564.32967,84.6378609 C565.269231,77.7025201 566.208791,71.0009548 567.226648,64.533165 C568.244505,58.0653753 569.105769,52.2209869 570.04533,47 L585,47 L564.016484,188.356273 C563.37286,192.771748 562.457679,197.143769 561.276099,201.447703 C560.390739,204.873858 558.906574,208.118252 556.891484,211.032499 C554.986066,213.599233 552.452406,215.638004 549.531593,216.954813 C545.93795,218.435776 542.065339,219.12688 538.178571,218.980868 C535.35918,218.990291 532.548077,218.676523 529.800824,218.045765 L529.800824,202.46073 Z" id="Path" fill="#89A45E"></path>
            <path d="M626.064019,73.0592658 C625.600814,65.5929637 627.849655,58.2098356 632.399809,52.2583432 C643.625838,42.5805523 660.283596,42.5805523 671.509625,52.2583432 C676.152638,58.1655371 678.437278,65.574728 677.923635,73.0592658 L677.923635,161.171039 C678.458486,168.610109 676.169423,175.978038 671.509625,181.81615 C660.246622,191.394617 643.662811,191.394617 632.399809,181.81615 C627.834757,175.932203 625.581965,168.591502 626.064019,161.171039 L626.064019,73.0592658 Z M662.514367,73.4487962 C662.68949,70.2727211 661.957215,67.1122526 660.402437,64.3337852 C658.312234,61.858543 655.093875,60.6234125 651.876497,61.0617299 C648.68159,60.6209858 645.485305,61.8590025 643.428777,64.3337852 C641.788157,67.0863713 640.973821,70.2495496 641.082188,73.4487962 L641.082188,161.171039 C640.90387,164.283019 641.666789,167.376738 643.272338,170.052332 C648.183058,174.147968 655.335277,174.147968 660.245998,170.052332 C661.829964,167.228454 662.563204,164.009722 662.357928,160.781509 L662.514367,73.4487962 Z" id="Shape" fill="#333333"></path>
            <path d="M693.642276,187 L693.642276,60.9346878 L687,60.9346878 L687,47.2302437 L693.642276,47.2302437 L693.642276,27.84157 C693.253954,20.7372764 694.860101,13.6665258 698.276423,7.44063623 C702.100169,2.16384313 708.443304,-0.632069421 714.882114,0.121217243 C716.682364,0.00267278393 718.488368,0.00267278393 720.288618,0.121217243 C721.881219,0.343754585 723.455782,0.682056058 725,1.13347732 L725,14.7600552 C723.160202,14.2729793 721.26384,14.0372731 719.361789,14.0592598 C716.427804,13.9078853 713.585087,15.1115712 711.638211,17.3296385 C709.648445,20.6214483 708.75533,24.4686342 709.089431,28.308767 L709.089431,47.2302437 L724.536585,47.2302437 L724.536585,60.9346878 L709.089431,60.9346878 L709.089431,187 L693.642276,187 Z" id="Path" fill="#333333"></path>
            <path d="M803.383043,187 L803.383043,71.5895879 C803.672937,68.5662057 802.964249,65.5310434 801.366072,62.951317 C799.589791,61.0620296 797.036531,60.1123075 794.461828,60.3831825 C792.065855,60.3984316 789.72416,61.100472 787.712734,62.4065612 C785.322923,63.9317619 783.497228,66.2006288 782.515157,68.8658088 L782.515157,187 L767,187 L767,47.3090427 L780.032732,47.3090427 C780.439223,50.822349 780.646425,54.3559846 780.653338,57.8928701 C782.648002,54.1431727 785.523737,50.9377593 789.031523,48.5541989 C792.491924,46.2224373 796.577192,45 800.745466,45.0521972 C806.072649,44.6193003 811.26034,46.8997809 814.553956,51.1223335 C817.910653,57.0818029 819.422956,63.908788 818.8982,70.7335431 L818.8982,187 L803.383043,187 Z" id="Path" fill="#89A45E"></path>
            <path d="M868.424446,130.12396 L883,130.12396 L883,160.770694 C883,179.590231 874.704339,189 858.113018,189 C841.521696,189 833.51031,179.590231 834.07886,160.770694 L834.07886,73.6653476 C833.543966,66.0024927 835.743101,58.3988973 840.281223,52.2204325 C844.846771,47.2486369 851.39798,44.6128768 858.113018,45.0461336 C874.704339,45.0461336 883,54.5858716 883,73.6653476 L883,118.582697 L848.421825,118.582697 L848.421825,160.770694 C848.421825,169.036734 851.678066,173.169754 858.113018,173.169754 C864.547969,173.169754 868.424446,169.036734 868.424446,160.770694 L868.424446,130.12396 Z M868.424446,73.6653476 C868.424446,65.3993076 864.935617,61.2662876 858.113018,61.2662876 C851.290418,61.2662876 848.421825,65.3993076 848.421825,73.6653476 L848.421825,107.275378 L868.424446,107.275378 L868.424446,73.6653476 Z" id="Shape" fill="#89A45E"></path>
            <path d="M898,187 L898,47.4199178 L911.041215,47.4199178 C911.503017,50.7700182 911.737821,54.1472741 911.744035,57.5287817 C913.249356,54.0006909 915.709644,50.9585413 918.850325,48.7418462 C921.950558,46.7964384 925.576139,45.8463773 929.236443,46.020229 C930.878108,45.9234331 932.517484,46.2445679 934,46.9533549 L934,64.2939445 C933.059195,63.6097084 931.955818,63.1809454 930.798265,63.0497766 C929.536103,62.8127284 928.256031,62.6826618 926.9718,62.6609741 C924.505269,62.7019498 922.078437,63.2861724 919.86551,64.371705 C917.205983,65.8505853 915.158624,68.2198748 914.086768,71.0591072 L914.086768,187 L898,187 Z" id="Path" fill="#89A45E"></path>
            <path d="M982.297439,187.413651 C982.297439,185.772273 982.297439,184.052734 982.297439,182.333195 C982.297439,180.613656 982.297439,178.815956 982.297439,177.018256 C980.805924,180.548945 978.349688,183.583863 975.212592,185.772273 C971.527834,188.061171 967.239871,189.178235 962.911429,188.976868 C949.676001,188.976868 943.136142,180.222852 943.136142,162.714819 L943.136142,70.6413261 C942.484576,63.6677088 944.184441,56.6764296 947.963181,50.7884677 C951.959268,46.4975724 957.708172,44.3044196 963.534273,44.8482424 C966.968445,44.783788 970.356689,45.6476698 973.344061,47.3493899 C976.194359,48.9380616 978.62384,51.1894564 980.428908,53.9149021 L980.428908,1 L996,1 L996,187.413651 L982.297439,187.413651 Z M980.039631,70.1723609 C978.569006,64.6911542 973.701331,60.8198175 968.04989,60.636736 C965.18263,60.2419887 962.297711,61.2267088 960.264344,63.2942053 C958.516085,65.9164523 957.718935,69.0623707 958.006535,72.2045433 L958.006535,160.369993 C957.702592,163.587242 958.498892,166.812504 960.264344,169.514814 C962.297711,171.58231 965.18263,172.56703 968.04989,172.172283 C973.694252,172.08767 978.622215,168.313773 980.195342,162.871141 L980.039631,70.1723609 Z" id="Shape" fill="#89A45E"></path>
            <path d="M1044.29877,146.442495 C1044.35505,143.782088 1043.87322,141.137348 1042.88153,138.663313 C1041.51084,135.607586 1039.67909,132.774881 1037.44874,130.261797 C1034.14243,126.43622 1030.56397,122.848682 1026.74063,119.526527 C1023.09402,116.367883 1019.67389,112.962777 1016.50494,109.335799 C1013.73508,106.579444 1011.70534,103.183632 1010.59974,99.4562378 C1009.5374,95.1822047 1009.06073,90.7865913 1009.18249,86.3872126 L1009.18249,71.9179347 C1008.39226,64.4046939 1010.69021,56.8927764 1015.56011,51.0697278 C1021.01017,46.717787 1027.94434,44.6012135 1034.92918,45.1575497 C1041.95166,44.3476291 1048.97208,46.6882512 1054.06205,51.5364787 C1058.0467,57.5698756 1059.90132,64.7352929 1059.33736,71.9179347 L1059.33736,94.6331452 L1044.92866,94.6331452 L1044.92866,71.9179347 C1044.99283,69.0534246 1043.95126,66.2721402 1042.01543,64.138753 C1039.98177,62.0079727 1037.10181,60.8698019 1034.14182,61.0270803 C1027.60673,61.0270803 1024.37855,64.8388793 1024.37855,72.3068938 L1024.37855,88.7209671 C1024.24554,91.3724131 1024.67463,94.022071 1025.63833,96.5001488 C1026.95307,99.0437049 1028.68207,101.356432 1030.75617,103.345829 C1034.05571,106.837764 1037.60822,110.087683 1041.38554,113.069806 C1044.86086,115.864481 1048.09977,118.934463 1051.07008,122.24924 C1054.1698,125.69734 1056.55104,129.71541 1058.07759,134.073596 C1059.43236,138.881957 1060.04292,143.865181 1059.88852,148.854041 L1059.88852,163.712278 C1060.55087,170.71374 1058.24112,177.672605 1053.51089,182.926857 C1048.22929,187.256025 1041.4592,189.402046 1034.61424,188.916827 C1027.62474,189.472161 1020.70248,187.229785 1015.40264,182.693482 C1010.73913,177.220791 1008.47264,170.138953 1009.10375,163.012152 L1009.10375,140.374733 L1023.04004,140.374733 L1023.04004,162.623193 C1022.85988,165.645608 1023.90859,168.613992 1025.95327,170.869126 C1028.03531,172.920149 1030.88913,174.019792 1033.82688,173.903006 C1040.51944,173.903006 1043.90509,170.168999 1043.90509,162.623193 L1044.29877,146.442495 Z" id="Path" fill="#89A45E"></path>
        </g>
    </g>
</svg>